<mxfile host="65bd71144e">
    <diagram id="FxlZccrC0K8m9BiKaWOP" name="Page-1">
        <mxGraphModel dx="775" dy="548" grid="1" gridSize="10" guides="1" tooltips="1" connect="1" arrows="1" fold="1" page="1" pageScale="1" pageWidth="850" pageHeight="1100" math="0" shadow="0">
            <root>
                <mxCell id="0"/>
                <mxCell id="1" parent="0"/>
                <UserObject label="" mermaidData="{&#10;  &quot;data&quot;: &quot;classDiagram\n    class User {\n        - UserID\n        - Username\n        - Email\n        - Password \n        - DateJoined\n        - LastLogin\n        ---\n        + register()\n        + login()\n        + logout()\n        + updateProfile()\n        + resetPassword()\n    }\n\n    class ShoppingCart {\n        - UserID\n        - TotalItems\n        - TotalPrice\n        - LastModified\n        - ExpiresAt\n        - IsExpired\n        ---\n        + addItem()\n        + removeItem()\n        + clearCart()\n        + getCartItems()\n        + calculateTotal()\n        + applyDiscount()\n    }\n\n    class Product {\n        - ProductID\n        - Name\n        - Description\n        - Price\n        - Quantity\n        - Category\n        - Brand\n        - ImageURL\n        ---\n        + addProduct()\n        + editProduct()\n        + deleteProduct()\n        + getProductDetails()\n        + updateQuantity()\n        + updatePrice()\n    }\n\n    class Order {\n        - OrderID\n        - UserID\n        - Items\n        - TotalAmount\n        - Status\n        - OrderDate\n        ---\n        + placeOrder()\n        + processOrder()\n        + cancelOrder()\n        + getOrderDetails()\n        + trackOrder()\n    }\n\n    class Payment {\n        - PaymentID\n        - OrderID\n        - Amount\n        - PaymentMethod\n        - TransactionStatus\n        - PaymentDate\n        ---\n        + processPayment()\n        + verifyPayment()\n        + generateInvoice()\n    }\n\n    class RecommendationSystem {\n        - userID\n        - userFeedback\n        - userInterest\n        - recommendedProducts\n        ---\n        + generateRecommendations()\n        + updateRecommendations()\n        + getRecommendations()\n    }\n\n    class Chatbot {\n        - Services\n        - Status\n        - ChatHistory\n        ---\n        + answerQuery(query)\n        + analyzeFeedback(feedback)\n        + suggestProducts()\n    }\n\n    class Administrator {\n        - AdminID\n        - Username\n        - Email\n        - Password\n        ---\n        + manageInventory()\n        + processOrder(orderID)\n        + viewUserActivity()\n    }\n\n    class Review {\n        - ProductID\n        - UserID\n        - Rating\n        - Comment\n        - ReviewDate\n        ---\n        + addReview()\n        + deleteReview()\n        + getReviews()\n        + averageRating()\n    }\n\n    class Authentication {\n        - username\n        - password\n        - sessionManagement\n        - permissionManagement\n        ---\n        + authenticate()\n        + register()\n        + resetPassword()\n        + validate()\n     }\n\n    User -- ShoppingCart: Manages\n    User -- Order: Places\n    User -- Review: Writes\n    Authentication -- User: authenticates\n    ShoppingCart -- Product: Contains\n    ShoppingCart -- Order: Submits\n    Product -- Order: Included in\n    Order -- Payment: Initiates\n    RecommendationSystem -- User: Provides\n    Chatbot -- User: Assists\n    Administrator -- Product: Manages\n    Administrator -- Order: Manages\n    Administrator -- Review: Monitors\n    Administrator -- Payment: Monitors\n&quot;,&#10;  &quot;config&quot;: {&#10;    &quot;theme&quot;: &quot;dark&quot;,&#10;    &quot;arrowMarkerAbsolute&quot;: false,&#10;    &quot;flowchart&quot;: {&#10;      &quot;htmlLabels&quot;: false&#10;    },&#10;    &quot;sequence&quot;: {&#10;      &quot;diagramMarginX&quot;: 50,&#10;      &quot;diagramMarginY&quot;: 10,&#10;      &quot;actorMargin&quot;: 50,&#10;      &quot;width&quot;: 150,&#10;      &quot;height&quot;: 65,&#10;      &quot;boxMargin&quot;: 10,&#10;      &quot;boxTextMargin&quot;: 5,&#10;      &quot;noteMargin&quot;: 10,&#10;      &quot;messageMargin&quot;: 35,&#10;      &quot;mirrorActors&quot;: true,&#10;      &quot;bottomMarginAdj&quot;: 1,&#10;      &quot;useMaxWidth&quot;: true,&#10;      &quot;rightAngles&quot;: false,&#10;      &quot;showSequenceNumbers&quot;: false&#10;    },&#10;    &quot;gantt&quot;: {&#10;      &quot;titleTopMargin&quot;: 25,&#10;      &quot;barHeight&quot;: 20,&#10;      &quot;barGap&quot;: 4,&#10;      &quot;topPadding&quot;: 50,&#10;      &quot;leftPadding&quot;: 75,&#10;      &quot;gridLineStartPadding&quot;: 35,&#10;      &quot;fontSize&quot;: 11,&#10;      &quot;fontFamily&quot;: &quot;\&quot;Open-Sans\&quot;, \&quot;sans-serif\&quot;&quot;,&#10;      &quot;numberSectionStyles&quot;: 4,&#10;      &quot;axisFormat&quot;: &quot;%Y-%m-%d&quot;&#10;    },&#10;    &quot;securityLevel&quot;: &quot;strict&quot;,&#10;    &quot;startOnLoad&quot;: false,&#10;    &quot;themeVariables&quot;: {&#10;      &quot;background&quot;: &quot;#333&quot;,&#10;      &quot;primaryColor&quot;: &quot;#1f2020&quot;,&#10;      &quot;secondaryColor&quot;: &quot;hsl(180, 1.5873015873%, 28.3529411765%)&quot;,&#10;      &quot;tertiaryColor&quot;: &quot;hsl(20, 1.5873015873%, 12.3529411765%)&quot;,&#10;      &quot;primaryBorderColor&quot;: &quot;#cccccc&quot;,&#10;      &quot;secondaryBorderColor&quot;: &quot;hsl(180, 0%, 18.3529411765%)&quot;,&#10;      &quot;tertiaryBorderColor&quot;: &quot;hsl(20, 0%, 2.3529411765%)&quot;,&#10;      &quot;primaryTextColor&quot;: &quot;#e0dfdf&quot;,&#10;      &quot;secondaryTextColor&quot;: &quot;rgb(183.8476190475, 181.5523809523, 181.5523809523)&quot;,&#10;      &quot;tertiaryTextColor&quot;: &quot;rgb(222.9999999999, 223.6666666666, 223.9999999999)&quot;,&#10;      &quot;lineColor&quot;: &quot;lightgrey&quot;,&#10;      &quot;textColor&quot;: &quot;#ccc&quot;,&#10;      &quot;mainBkg&quot;: &quot;#1f2020&quot;,&#10;      &quot;secondBkg&quot;: &quot;hsl(180, 1.5873015873%, 28.3529411765%)&quot;,&#10;      &quot;mainContrastColor&quot;: &quot;lightgrey&quot;,&#10;      &quot;darkTextColor&quot;: &quot;hsl(28.5714285714, 17.3553719008%, 86.2745098039%)&quot;,&#10;      &quot;border1&quot;: &quot;#81B1DB&quot;,&#10;      &quot;border2&quot;: &quot;rgba(255, 255, 255, 0.25)&quot;,&#10;      &quot;arrowheadColor&quot;: &quot;lightgrey&quot;,&#10;      &quot;fontFamily&quot;: &quot;\&quot;trebuchet ms\&quot;, verdana, arial, sans-serif&quot;,&#10;      &quot;fontSize&quot;: &quot;16px&quot;,&#10;      &quot;labelBackground&quot;: &quot;#181818&quot;,&#10;      &quot;nodeBkg&quot;: &quot;#1f2020&quot;,&#10;      &quot;nodeBorder&quot;: &quot;#81B1DB&quot;,&#10;      &quot;clusterBkg&quot;: &quot;hsl(180, 1.5873015873%, 28.3529411765%)&quot;,&#10;      &quot;clusterBorder&quot;: &quot;rgba(255, 255, 255, 0.25)&quot;,&#10;      &quot;defaultLinkColor&quot;: &quot;lightgrey&quot;,&#10;      &quot;titleColor&quot;: &quot;#F9FFFE&quot;,&#10;      &quot;edgeLabelBackground&quot;: &quot;hsl(0, 0%, 34.4117647059%)&quot;,&#10;      &quot;actorBorder&quot;: &quot;#81B1DB&quot;,&#10;      &quot;actorBkg&quot;: &quot;#1f2020&quot;,&#10;      &quot;actorTextColor&quot;: &quot;lightgrey&quot;,&#10;      &quot;actorLineColor&quot;: &quot;lightgrey&quot;,&#10;      &quot;signalColor&quot;: &quot;lightgrey&quot;,&#10;      &quot;signalTextColor&quot;: &quot;lightgrey&quot;,&#10;      &quot;labelBoxBkgColor&quot;: &quot;#1f2020&quot;,&#10;      &quot;labelBoxBorderColor&quot;: &quot;#81B1DB&quot;,&#10;      &quot;labelTextColor&quot;: &quot;lightgrey&quot;,&#10;      &quot;loopTextColor&quot;: &quot;lightgrey&quot;,&#10;      &quot;noteBorderColor&quot;: &quot;hsl(180, 0%, 18.3529411765%)&quot;,&#10;      &quot;noteBkgColor&quot;: &quot;hsl(180, 1.5873015873%, 28.3529411765%)&quot;,&#10;      &quot;noteTextColor&quot;: &quot;rgb(183.8476190475, 181.5523809523, 181.5523809523)&quot;,&#10;      &quot;activationBorderColor&quot;: &quot;#81B1DB&quot;,&#10;      &quot;activationBkgColor&quot;: &quot;hsl(180, 1.5873015873%, 28.3529411765%)&quot;,&#10;      &quot;sequenceNumberColor&quot;: &quot;black&quot;,&#10;      &quot;sectionBkgColor&quot;: &quot;hsl(52.9411764706, 28.813559322%, 58.431372549%)&quot;,&#10;      &quot;altSectionBkgColor&quot;: &quot;#333&quot;,&#10;      &quot;sectionBkgColor2&quot;: &quot;#EAE8D9&quot;,&#10;      &quot;taskBorderColor&quot;: &quot;#ffffff&quot;,&#10;      &quot;taskBkgColor&quot;: &quot;hsl(180, 1.5873015873%, 35.3529411765%)&quot;,&#10;      &quot;taskTextColor&quot;: &quot;hsl(28.5714285714, 17.3553719008%, 86.2745098039%)&quot;,&#10;      &quot;taskTextLightColor&quot;: &quot;lightgrey&quot;,&#10;      &quot;taskTextOutsideColor&quot;: &quot;lightgrey&quot;,&#10;      &quot;taskTextClickableColor&quot;: &quot;#003163&quot;,&#10;      &quot;activeTaskBorderColor&quot;: &quot;#ffffff&quot;,&#10;      &quot;activeTaskBkgColor&quot;: &quot;#81B1DB&quot;,&#10;      &quot;gridColor&quot;: &quot;lightgrey&quot;,&#10;      &quot;doneTaskBkgColor&quot;: &quot;lightgrey&quot;,&#10;      &quot;doneTaskBorderColor&quot;: &quot;grey&quot;,&#10;      &quot;critBorderColor&quot;: &quot;#E83737&quot;,&#10;      &quot;critBkgColor&quot;: &quot;#E83737&quot;,&#10;      &quot;taskTextDarkColor&quot;: &quot;hsl(28.5714285714, 17.3553719008%, 86.2745098039%)&quot;,&#10;      &quot;todayLineColor&quot;: &quot;#DB5757&quot;,&#10;      &quot;personBorder&quot;: &quot;calculated&quot;,&#10;      &quot;personBkg&quot;: &quot;calculated&quot;,&#10;      &quot;labelColor&quot;: &quot;calculated&quot;,&#10;      &quot;errorBkgColor&quot;: &quot;#a44141&quot;,&#10;      &quot;errorTextColor&quot;: &quot;#ddd&quot;,&#10;      &quot;transitionColor&quot;: &quot;lightgrey&quot;,&#10;      &quot;transitionLabelColor&quot;: &quot;#ccc&quot;,&#10;      &quot;stateLabelColor&quot;: &quot;#e0dfdf&quot;,&#10;      &quot;stateBkg&quot;: &quot;#1f2020&quot;,&#10;      &quot;labelBackgroundColor&quot;: &quot;#1f2020&quot;,&#10;      &quot;compositeBackground&quot;: &quot;#333&quot;,&#10;      &quot;altBackground&quot;: &quot;#555&quot;,&#10;      &quot;compositeTitleBackground&quot;: &quot;#1f2020&quot;,&#10;      &quot;compositeBorder&quot;: &quot;#81B1DB&quot;,&#10;      &quot;innerEndBackground&quot;: &quot;#cccccc&quot;,&#10;      &quot;specialStateColor&quot;: &quot;#f4f4f4&quot;,&#10;      &quot;fillType0&quot;: &quot;#1f2020&quot;,&#10;      &quot;fillType1&quot;: &quot;hsl(180, 1.5873015873%, 28.3529411765%)&quot;,&#10;      &quot;fillType2&quot;: &quot;hsl(244, 1.5873015873%, 12.3529411765%)&quot;,&#10;      &quot;fillType3&quot;: &quot;hsl(244, 1.5873015873%, 28.3529411765%)&quot;,&#10;      &quot;fillType4&quot;: &quot;hsl(116, 1.5873015873%, 12.3529411765%)&quot;,&#10;      &quot;fillType5&quot;: &quot;hsl(116, 1.5873015873%, 28.3529411765%)&quot;,&#10;      &quot;fillType6&quot;: &quot;hsl(308, 1.5873015873%, 12.3529411765%)&quot;,&#10;      &quot;fillType7&quot;: &quot;hsl(308, 1.5873015873%, 28.3529411765%)&quot;,&#10;      &quot;pie1&quot;: &quot;#0b0000&quot;,&#10;      &quot;pie2&quot;: &quot;#4d1037&quot;,&#10;      &quot;pie3&quot;: &quot;#3f5258&quot;,&#10;      &quot;pie4&quot;: &quot;#4f2f1b&quot;,&#10;      &quot;pie5&quot;: &quot;#6e0a0a&quot;,&#10;      &quot;pie6&quot;: &quot;#3b0048&quot;,&#10;      &quot;pie7&quot;: &quot;#995a01&quot;,&#10;      &quot;pie8&quot;: &quot;#154706&quot;,&#10;      &quot;pie9&quot;: &quot;#161722&quot;,&#10;      &quot;pie10&quot;: &quot;#00296f&quot;,&#10;      &quot;pie11&quot;: &quot;#01629c&quot;,&#10;      &quot;pie12&quot;: &quot;#010029&quot;,&#10;      &quot;pieTitleTextSize&quot;: &quot;25px&quot;,&#10;      &quot;pieTitleTextColor&quot;: &quot;hsl(28.5714285714, 17.3553719008%, 86.2745098039%)&quot;,&#10;      &quot;pieSectionTextSize&quot;: &quot;17px&quot;,&#10;      &quot;pieSectionTextColor&quot;: &quot;#ccc&quot;,&#10;      &quot;pieLegendTextSize&quot;: &quot;17px&quot;,&#10;      &quot;pieLegendTextColor&quot;: &quot;hsl(28.5714285714, 17.3553719008%, 86.2745098039%)&quot;,&#10;      &quot;pieStrokeColor&quot;: &quot;black&quot;,&#10;      &quot;pieStrokeWidth&quot;: &quot;2px&quot;,&#10;      &quot;pieOpacity&quot;: &quot;0.7&quot;,&#10;      &quot;classText&quot;: &quot;#e0dfdf&quot;,&#10;      &quot;requirementBackground&quot;: &quot;#1f2020&quot;,&#10;      &quot;requirementBorderColor&quot;: &quot;#cccccc&quot;,&#10;      &quot;requirementBorderSize&quot;: &quot;#cccccc&quot;,&#10;      &quot;requirementTextColor&quot;: &quot;#e0dfdf&quot;,&#10;      &quot;relationColor&quot;: &quot;lightgrey&quot;,&#10;      &quot;relationLabelBackground&quot;: &quot;hsl(180, 1.5873015873%, 28.3529411765%)&quot;,&#10;      &quot;relationLabelColor&quot;: &quot;lightgrey&quot;,&#10;      &quot;git0&quot;: &quot;hsl(180, 1.5873015873%, 48.3529411765%)&quot;,&#10;      &quot;git1&quot;: &quot;hsl(321.6393442623, 65.5913978495%, 38.2352941176%)&quot;,&#10;      &quot;git2&quot;: &quot;hsl(194.4, 16.5562913907%, 49.6078431373%)&quot;,&#10;      &quot;git3&quot;: &quot;hsl(23.0769230769, 49.0566037736%, 40.7843137255%)&quot;,&#10;      &quot;git4&quot;: &quot;hsl(0, 83.3333333333%, 43.5294117647%)&quot;,&#10;      &quot;git5&quot;: &quot;hsl(289.1666666667, 100%, 24.1176470588%)&quot;,&#10;      &quot;git6&quot;: &quot;hsl(35.1315789474, 98.7012987013%, 40.1960784314%)&quot;,&#10;      &quot;git7&quot;: &quot;hsl(106.1538461538, 84.4155844156%, 35.0980392157%)&quot;,&#10;      &quot;gitInv0&quot;: &quot;rgb(133.6571428571, 129.7428571428, 129.7428571428)&quot;,&#10;      &quot;gitInv1&quot;: &quot;rgb(93.5483870969, 221.4516129033, 139.677419355)&quot;,&#10;      &quot;gitInv2&quot;: &quot;rgb(149.4437086091, 117.6092715231, 107.5562913906)&quot;,&#10;      &quot;gitInv3&quot;: &quot;rgb(99.9811320754, 162.7735849057, 202.0188679245)&quot;,&#10;      &quot;gitInv4&quot;: &quot;rgb(51.5000000001, 236.5, 236.5)&quot;,&#10;      &quot;gitInv5&quot;: &quot;rgb(154.2083333334, 255, 132.0000000001)&quot;,&#10;      &quot;gitInv6&quot;: &quot;rgb(51.331168831, 135.1948051946, 253.6688311688)&quot;,&#10;      &quot;gitInv7&quot;: &quot;rgb(206.1818181817, 89.948051948, 241.051948052)&quot;,&#10;      &quot;tagLabelColor&quot;: &quot;#e0dfdf&quot;,&#10;      &quot;tagLabelBackground&quot;: &quot;#1f2020&quot;,&#10;      &quot;tagLabelBorder&quot;: &quot;#cccccc&quot;,&#10;      &quot;tagLabelFontSize&quot;: &quot;10px&quot;,&#10;      &quot;commitLabelColor&quot;: &quot;rgb(183.8476190475, 181.5523809523, 181.5523809523)&quot;,&#10;      &quot;commitLabelBackground&quot;: &quot;hsl(180, 1.5873015873%, 28.3529411765%)&quot;,&#10;      &quot;commitLabelFontSize&quot;: &quot;10px&quot;&#10;    }&#10;  }&#10;}" id="2">
                    <mxCell style="shape=image;noLabel=1;verticalAlign=top;imageAspect=1;image=data:image/svg+xml,PHN2ZyBhcmlhLWxhYmVsbGVkYnk9ImNoYXJ0LXRpdGxlLWdlTWVybWFpZE91dHB1dC0xNzExNTEyODI3ODM4IGNoYXJ0LWRlc2MtZ2VNZXJtYWlkT3V0cHV0LTE3MTE1MTI4Mjc4MzgiIHJvbGU9ImltZyIgdmlld0JveD0iMCAwIDc2MS4zMjAzMTI1IDIzMDEiIHN0eWxlPSJtYXgtd2lkdGg6IDc2MS4zMjAzMTI1cHg7IiBoZWlnaHQ9IjIzMDEiIHhtbG5zOnhsaW5rPSJodHRwOi8vd3d3LnczLm9yZy8xOTk5L3hsaW5rIiB4bWxucz0iaHR0cDovL3d3dy53My5vcmcvMjAwMC9zdmciIHdpZHRoPSIxMDAlIiBpZD0iZ2VNZXJtYWlkT3V0cHV0LTE3MTE1MTI4Mjc4MzgiPjx0aXRsZSBpZD0iY2hhcnQtdGl0bGUtZ2VNZXJtYWlkT3V0cHV0LTE3MTE1MTI4Mjc4MzgiPjwvdGl0bGU+PGRlc2MgaWQ9ImNoYXJ0LWRlc2MtZ2VNZXJtYWlkT3V0cHV0LTE3MTE1MTI4Mjc4MzgiPjwvZGVzYz48c3R5bGU+I2dlTWVybWFpZE91dHB1dC0xNzExNTEyODI3ODM4IHtmb250LWZhbWlseToidHJlYnVjaGV0IG1zIix2ZXJkYW5hLGFyaWFsLHNhbnMtc2VyaWY7Zm9udC1zaXplOjE2cHg7ZmlsbDojY2NjO30jZ2VNZXJtYWlkT3V0cHV0LTE3MTE1MTI4Mjc4MzggLmVycm9yLWljb257ZmlsbDojYTQ0MTQxO30jZ2VNZXJtYWlkT3V0cHV0LTE3MTE1MTI4Mjc4MzggLmVycm9yLXRleHR7ZmlsbDojZGRkO3N0cm9rZTojZGRkO30jZ2VNZXJtYWlkT3V0cHV0LTE3MTE1MTI4Mjc4MzggLmVkZ2UtdGhpY2tuZXNzLW5vcm1hbHtzdHJva2Utd2lkdGg6MnB4O30jZ2VNZXJtYWlkT3V0cHV0LTE3MTE1MTI4Mjc4MzggLmVkZ2UtdGhpY2tuZXNzLXRoaWNre3N0cm9rZS13aWR0aDozLjVweDt9I2dlTWVybWFpZE91dHB1dC0xNzExNTEyODI3ODM4IC5lZGdlLXBhdHRlcm4tc29saWR7c3Ryb2tlLWRhc2hhcnJheTowO30jZ2VNZXJtYWlkT3V0cHV0LTE3MTE1MTI4Mjc4MzggLmVkZ2UtcGF0dGVybi1kYXNoZWR7c3Ryb2tlLWRhc2hhcnJheTozO30jZ2VNZXJtYWlkT3V0cHV0LTE3MTE1MTI4Mjc4MzggLmVkZ2UtcGF0dGVybi1kb3R0ZWR7c3Ryb2tlLWRhc2hhcnJheToyO30jZ2VNZXJtYWlkT3V0cHV0LTE3MTE1MTI4Mjc4MzggLm1hcmtlcntmaWxsOmxpZ2h0Z3JleTtzdHJva2U6bGlnaHRncmV5O30jZ2VNZXJtYWlkT3V0cHV0LTE3MTE1MTI4Mjc4MzggLm1hcmtlci5jcm9zc3tzdHJva2U6bGlnaHRncmV5O30jZ2VNZXJtYWlkT3V0cHV0LTE3MTE1MTI4Mjc4Mzggc3Zne2ZvbnQtZmFtaWx5OiJ0cmVidWNoZXQgbXMiLHZlcmRhbmEsYXJpYWwsc2Fucy1zZXJpZjtmb250LXNpemU6MTZweDt9I2dlTWVybWFpZE91dHB1dC0xNzExNTEyODI3ODM4IGcuY2xhc3NHcm91cCB0ZXh0e2ZpbGw6IzgxQjFEQjtmaWxsOiNlMGRmZGY7c3Ryb2tlOm5vbmU7Zm9udC1mYW1pbHk6InRyZWJ1Y2hldCBtcyIsdmVyZGFuYSxhcmlhbCxzYW5zLXNlcmlmO2ZvbnQtc2l6ZToxMHB4O30jZ2VNZXJtYWlkT3V0cHV0LTE3MTE1MTI4Mjc4MzggZy5jbGFzc0dyb3VwIHRleHQgLnRpdGxle2ZvbnQtd2VpZ2h0OmJvbGRlcjt9I2dlTWVybWFpZE91dHB1dC0xNzExNTEyODI3ODM4IC5ub2RlTGFiZWwsI2dlTWVybWFpZE91dHB1dC0xNzExNTEyODI3ODM4IC5lZGdlTGFiZWx7Y29sb3I6I2UwZGZkZjt9I2dlTWVybWFpZE91dHB1dC0xNzExNTEyODI3ODM4IC5lZGdlTGFiZWwgLmxhYmVsIHJlY3R7ZmlsbDojMWYyMDIwO30jZ2VNZXJtYWlkT3V0cHV0LTE3MTE1MTI4Mjc4MzggLmxhYmVsIHRleHR7ZmlsbDojZTBkZmRmO30jZ2VNZXJtYWlkT3V0cHV0LTE3MTE1MTI4Mjc4MzggLmVkZ2VMYWJlbCAubGFiZWwgc3BhbntiYWNrZ3JvdW5kOiMxZjIwMjA7fSNnZU1lcm1haWRPdXRwdXQtMTcxMTUxMjgyNzgzOCAuY2xhc3NUaXRsZXtmb250LXdlaWdodDpib2xkZXI7fSNnZU1lcm1haWRPdXRwdXQtMTcxMTUxMjgyNzgzOCAubm9kZSByZWN0LCNnZU1lcm1haWRPdXRwdXQtMTcxMTUxMjgyNzgzOCAubm9kZSBjaXJjbGUsI2dlTWVybWFpZE91dHB1dC0xNzExNTEyODI3ODM4IC5ub2RlIGVsbGlwc2UsI2dlTWVybWFpZE91dHB1dC0xNzExNTEyODI3ODM4IC5ub2RlIHBvbHlnb24sI2dlTWVybWFpZE91dHB1dC0xNzExNTEyODI3ODM4IC5ub2RlIHBhdGh7ZmlsbDojMWYyMDIwO3N0cm9rZTojODFCMURCO3N0cm9rZS13aWR0aDoxcHg7fSNnZU1lcm1haWRPdXRwdXQtMTcxMTUxMjgyNzgzOCAuZGl2aWRlcntzdHJva2U6IzgxQjFEQjtzdHJva2U6MTt9I2dlTWVybWFpZE91dHB1dC0xNzExNTEyODI3ODM4IGcuY2xpY2thYmxle2N1cnNvcjpwb2ludGVyO30jZ2VNZXJtYWlkT3V0cHV0LTE3MTE1MTI4Mjc4MzggZy5jbGFzc0dyb3VwIHJlY3R7ZmlsbDojMWYyMDIwO3N0cm9rZTojODFCMURCO30jZ2VNZXJtYWlkT3V0cHV0LTE3MTE1MTI4Mjc4MzggZy5jbGFzc0dyb3VwIGxpbmV7c3Ryb2tlOiM4MUIxREI7c3Ryb2tlLXdpZHRoOjE7fSNnZU1lcm1haWRPdXRwdXQtMTcxMTUxMjgyNzgzOCAuY2xhc3NMYWJlbCAuYm94e3N0cm9rZTpub25lO3N0cm9rZS13aWR0aDowO2ZpbGw6IzFmMjAyMDtvcGFjaXR5OjAuNTt9I2dlTWVybWFpZE91dHB1dC0xNzExNTEyODI3ODM4IC5jbGFzc0xhYmVsIC5sYWJlbHtmaWxsOiM4MUIxREI7Zm9udC1zaXplOjEwcHg7fSNnZU1lcm1haWRPdXRwdXQtMTcxMTUxMjgyNzgzOCAucmVsYXRpb257c3Ryb2tlOmxpZ2h0Z3JleTtzdHJva2Utd2lkdGg6MTtmaWxsOm5vbmU7fSNnZU1lcm1haWRPdXRwdXQtMTcxMTUxMjgyNzgzOCAuZGFzaGVkLWxpbmV7c3Ryb2tlLWRhc2hhcnJheTozO30jZ2VNZXJtYWlkT3V0cHV0LTE3MTE1MTI4Mjc4MzggI2NvbXBvc2l0aW9uU3RhcnQsI2dlTWVybWFpZE91dHB1dC0xNzExNTEyODI3ODM4IC5jb21wb3NpdGlvbntmaWxsOmxpZ2h0Z3JleSFpbXBvcnRhbnQ7c3Ryb2tlOmxpZ2h0Z3JleSFpbXBvcnRhbnQ7c3Ryb2tlLXdpZHRoOjE7fSNnZU1lcm1haWRPdXRwdXQtMTcxMTUxMjgyNzgzOCAjY29tcG9zaXRpb25FbmQsI2dlTWVybWFpZE91dHB1dC0xNzExNTEyODI3ODM4IC5jb21wb3NpdGlvbntmaWxsOmxpZ2h0Z3JleSFpbXBvcnRhbnQ7c3Ryb2tlOmxpZ2h0Z3JleSFpbXBvcnRhbnQ7c3Ryb2tlLXdpZHRoOjE7fSNnZU1lcm1haWRPdXRwdXQtMTcxMTUxMjgyNzgzOCAjZGVwZW5kZW5jeVN0YXJ0LCNnZU1lcm1haWRPdXRwdXQtMTcxMTUxMjgyNzgzOCAuZGVwZW5kZW5jeXtmaWxsOmxpZ2h0Z3JleSFpbXBvcnRhbnQ7c3Ryb2tlOmxpZ2h0Z3JleSFpbXBvcnRhbnQ7c3Ryb2tlLXdpZHRoOjE7fSNnZU1lcm1haWRPdXRwdXQtMTcxMTUxMjgyNzgzOCAjZGVwZW5kZW5jeVN0YXJ0LCNnZU1lcm1haWRPdXRwdXQtMTcxMTUxMjgyNzgzOCAuZGVwZW5kZW5jeXtmaWxsOmxpZ2h0Z3JleSFpbXBvcnRhbnQ7c3Ryb2tlOmxpZ2h0Z3JleSFpbXBvcnRhbnQ7c3Ryb2tlLXdpZHRoOjE7fSNnZU1lcm1haWRPdXRwdXQtMTcxMTUxMjgyNzgzOCAjZXh0ZW5zaW9uU3RhcnQsI2dlTWVybWFpZE91dHB1dC0xNzExNTEyODI3ODM4IC5leHRlbnNpb257ZmlsbDpsaWdodGdyZXkhaW1wb3J0YW50O3N0cm9rZTpsaWdodGdyZXkhaW1wb3J0YW50O3N0cm9rZS13aWR0aDoxO30jZ2VNZXJtYWlkT3V0cHV0LTE3MTE1MTI4Mjc4MzggI2V4dGVuc2lvbkVuZCwjZ2VNZXJtYWlkT3V0cHV0LTE3MTE1MTI4Mjc4MzggLmV4dGVuc2lvbntmaWxsOmxpZ2h0Z3JleSFpbXBvcnRhbnQ7c3Ryb2tlOmxpZ2h0Z3JleSFpbXBvcnRhbnQ7c3Ryb2tlLXdpZHRoOjE7fSNnZU1lcm1haWRPdXRwdXQtMTcxMTUxMjgyNzgzOCAjYWdncmVnYXRpb25TdGFydCwjZ2VNZXJtYWlkT3V0cHV0LTE3MTE1MTI4Mjc4MzggLmFnZ3JlZ2F0aW9ue2ZpbGw6IzFmMjAyMCFpbXBvcnRhbnQ7c3Ryb2tlOmxpZ2h0Z3JleSFpbXBvcnRhbnQ7c3Ryb2tlLXdpZHRoOjE7fSNnZU1lcm1haWRPdXRwdXQtMTcxMTUxMjgyNzgzOCAjYWdncmVnYXRpb25FbmQsI2dlTWVybWFpZE91dHB1dC0xNzExNTEyODI3ODM4IC5hZ2dyZWdhdGlvbntmaWxsOiMxZjIwMjAhaW1wb3J0YW50O3N0cm9rZTpsaWdodGdyZXkhaW1wb3J0YW50O3N0cm9rZS13aWR0aDoxO30jZ2VNZXJtYWlkT3V0cHV0LTE3MTE1MTI4Mjc4MzggLmVkZ2VUZXJtaW5hbHN7Zm9udC1zaXplOjExcHg7fSNnZU1lcm1haWRPdXRwdXQtMTcxMTUxMjgyNzgzOCA6cm9vdHstLW1lcm1haWQtZm9udC1mYW1pbHk6InRyZWJ1Y2hldCBtcyIsdmVyZGFuYSxhcmlhbCxzYW5zLXNlcmlmO308L3N0eWxlPjxnIHRyYW5zZm9ybT0idHJhbnNsYXRlKDAsIDApIj48ZGVmcz48bWFya2VyIG9yaWVudD0iYXV0byIgbWFya2VySGVpZ2h0PSIyNDAiIG1hcmtlcldpZHRoPSIxOTAiIHJlZlk9IjciIHJlZlg9IjAiIGNsYXNzPSJtYXJrZXIgYWdncmVnYXRpb24gY2xhc3NEaWFncmFtIiBpZD0iY2xhc3NEaWFncmFtLWFnZ3JlZ2F0aW9uU3RhcnQiPjxwYXRoIGQ9Ik0gMTgsNyBMOSwxMyBMMSw3IEw5LDEgWiI+PC9wYXRoPjwvbWFya2VyPjwvZGVmcz48ZGVmcz48bWFya2VyIG9yaWVudD0iYXV0byIgbWFya2VySGVpZ2h0PSIyOCIgbWFya2VyV2lkdGg9IjIwIiByZWZZPSI3IiByZWZYPSIxOSIgY2xhc3M9Im1hcmtlciBhZ2dyZWdhdGlvbiBjbGFzc0RpYWdyYW0iIGlkPSJjbGFzc0RpYWdyYW0tYWdncmVnYXRpb25FbmQiPjxwYXRoIGQ9Ik0gMTgsNyBMOSwxMyBMMSw3IEw5LDEgWiI+PC9wYXRoPjwvbWFya2VyPjwvZGVmcz48ZGVmcz48bWFya2VyIG9yaWVudD0iYXV0byIgbWFya2VySGVpZ2h0PSIyNDAiIG1hcmtlcldpZHRoPSIxOTAiIHJlZlk9IjciIHJlZlg9IjAiIGNsYXNzPSJtYXJrZXIgZXh0ZW5zaW9uIGNsYXNzRGlhZ3JhbSIgaWQ9ImNsYXNzRGlhZ3JhbS1leHRlbnNpb25TdGFydCI+PHBhdGggZD0iTSAxLDcgTDE4LDEzIFYgMSBaIj48L3BhdGg+PC9tYXJrZXI+PC9kZWZzPjxkZWZzPjxtYXJrZXIgb3JpZW50PSJhdXRvIiBtYXJrZXJIZWlnaHQ9IjI4IiBtYXJrZXJXaWR0aD0iMjAiIHJlZlk9IjciIHJlZlg9IjE5IiBjbGFzcz0ibWFya2VyIGV4dGVuc2lvbiBjbGFzc0RpYWdyYW0iIGlkPSJjbGFzc0RpYWdyYW0tZXh0ZW5zaW9uRW5kIj48cGF0aCBkPSJNIDEsMSBWIDEzIEwxOCw3IFoiPjwvcGF0aD48L21hcmtlcj48L2RlZnM+PGRlZnM+PG1hcmtlciBvcmllbnQ9ImF1dG8iIG1hcmtlckhlaWdodD0iMjQwIiBtYXJrZXJXaWR0aD0iMTkwIiByZWZZPSI3IiByZWZYPSIwIiBjbGFzcz0ibWFya2VyIGNvbXBvc2l0aW9uIGNsYXNzRGlhZ3JhbSIgaWQ9ImNsYXNzRGlhZ3JhbS1jb21wb3NpdGlvblN0YXJ0Ij48cGF0aCBkPSJNIDE4LDcgTDksMTMgTDEsNyBMOSwxIFoiPjwvcGF0aD48L21hcmtlcj48L2RlZnM+PGRlZnM+PG1hcmtlciBvcmllbnQ9ImF1dG8iIG1hcmtlckhlaWdodD0iMjgiIG1hcmtlcldpZHRoPSIyMCIgcmVmWT0iNyIgcmVmWD0iMTkiIGNsYXNzPSJtYXJrZXIgY29tcG9zaXRpb24gY2xhc3NEaWFncmFtIiBpZD0iY2xhc3NEaWFncmFtLWNvbXBvc2l0aW9uRW5kIj48cGF0aCBkPSJNIDE4LDcgTDksMTMgTDEsNyBMOSwxIFoiPjwvcGF0aD48L21hcmtlcj48L2RlZnM+PGRlZnM+PG1hcmtlciBvcmllbnQ9ImF1dG8iIG1hcmtlckhlaWdodD0iMjQwIiBtYXJrZXJXaWR0aD0iMTkwIiByZWZZPSI3IiByZWZYPSIwIiBjbGFzcz0ibWFya2VyIGRlcGVuZGVuY3kgY2xhc3NEaWFncmFtIiBpZD0iY2xhc3NEaWFncmFtLWRlcGVuZGVuY3lTdGFydCI+PHBhdGggZD0iTSA1LDcgTDksMTMgTDEsNyBMOSwxIFoiPjwvcGF0aD48L21hcmtlcj48L2RlZnM+PGRlZnM+PG1hcmtlciBvcmllbnQ9ImF1dG8iIG1hcmtlckhlaWdodD0iMjgiIG1hcmtlcldpZHRoPSIyMCIgcmVmWT0iNyIgcmVmWD0iMTkiIGNsYXNzPSJtYXJrZXIgZGVwZW5kZW5jeSBjbGFzc0RpYWdyYW0iIGlkPSJjbGFzc0RpYWdyYW0tZGVwZW5kZW5jeUVuZCI+PHBhdGggZD0iTSAxOCw3IEw5LDEzIEwxNCw3IEw5LDEgWiI+PC9wYXRoPjwvbWFya2VyPjwvZGVmcz48ZyBjbGFzcz0icm9vdCI+PGcgY2xhc3M9ImNsdXN0ZXJzIj48L2c+PGcgY2xhc3M9ImVkZ2VQYXRocyI+PHBhdGggc3R5bGU9ImZpbGw6bm9uZSIgY2xhc3M9ImVkZ2UtcGF0dGVybi1zb2xpZCByZWxhdGlvbiIgaWQ9ImlkMSIgZD0iTTMzNi41MjE0ODQzNzUsNjYwLjgzODM4MjQzNDY4NkwzMzkuMTc3MDgzMzMzMzMzMyw2NjcuMDczNjUyMDI4OTA1QzM0MS44MzI2ODIyOTE2NjY3LDY3My4zMDg5MjE2MjMxMjQsMzQ3LjE0Mzg4MDIwODMzMzMsNjg1Ljc3OTQ2MDgxMTU2MiwzNDkuNzk5NDc5MTY2NjY2Nyw2OTcuNzIzMDYzNzM5MTE0M0MzNTIuNDU1MDc4MTI1LDcwOS42NjY2NjY2NjY2NjY2LDM1Mi40NTUwNzgxMjUsNzIxLjA4MzMzMzMzMzMzMzQsMzUyLjQ1NTA3ODEyNSw3MjYuNzkxNjY2NjY2NjY2NkwzNTIuNDU1MDc4MTI1LDczMi41Ij48L3BhdGg+PHBhdGggc3R5bGU9ImZpbGw6bm9uZSIgY2xhc3M9ImVkZ2UtcGF0dGVybi1zb2xpZCByZWxhdGlvbiIgaWQ9ImlkMiIgZD0iTTE5OS43MzI0MjE4NzUsNTc0LjU2MzkzMDE4Mjk1NjNMMTgwLjc2MDA5MTE0NTgzMzM0LDU5NS4xNzgyNzUxNTI0NjM1QzE2MS43ODc3NjA0MTY2NjY2Niw2MTUuNzkyNjIwMTIxOTcwOCwxMjMuODQzMDk4OTU4MzMzMzMsNjU3LjAyMTMxMDA2MDk4NTUsMTA0Ljg3MDc2ODIyOTE2NjY3LDcxMi41MTA2NTUwMzA0OTI3Qzg1Ljg5ODQzNzUsNzY4LDg1Ljg5ODQzNzUsODM3Ljc1LDg1Ljg5ODQzNzUsOTA3LjVDODUuODk4NDM3NSw5NzcuMjUsODUuODk4NDM3NSwxMDQ3LDg1Ljg5ODQzNzUsMTEyMC41Qzg1Ljg5ODQzNzUsMTE5NCw4NS44OTg0Mzc1LDEyNzEuMjUsODUuODk4NDM3NSwxMzQ4LjVDODUuODk4NDM3NSwxNDI1Ljc1LDg1Ljg5ODQzNzUsMTUwMywxNDQuMDEzMDIwODMzMzMzMzQsMTU2OC44NDI5MDMxMTEwNTM2QzIwMi4xMjc2MDQxNjY2NjY2NiwxNjM0LjY4NTgwNjIyMjEwNzIsMzE4LjM1Njc3MDgzMzMzMzMsMTY4OS4xMjE2MTI0NDQyMTQ0LDM3Ni40NzEzNTQxNjY2NjY3LDE3MTYuMzM5NTE1NTU1MjY4TDQzNC41ODU5Mzc1LDE3NDMuNTU3NDE4NjY2MzIxNiI+PC9wYXRoPjxwYXRoIHN0eWxlPSJmaWxsOm5vbmUiIGNsYXNzPSJlZGdlLXBhdHRlcm4tc29saWQgcmVsYXRpb24iIGlkPSJpZDMiIGQ9Ik0xOTkuNzMyNDIxODc1LDYyNC4yNDc0MjQ3NTQ1NDdMMTkyLjkyOTM2MTk3OTE2NjY2LDYzNi41ODExODcyOTU0NTU4QzE4Ni4xMjYzMDIwODMzMzMzNCw2NDguOTE0OTQ5ODM2MzY0NiwxNzIuNTIwMTgyMjkxNjY2NjYsNjczLjU4MjQ3NDkxODE4MjQsMTY1LjcxNzEyMjM5NTgzMzM0LDcyMC43OTEyMzc0NTkwOTExQzE1OC45MTQwNjI1LDc2OCwxNTguOTE0MDYyNSw4MzcuNzUsMTU4LjkxNDA2MjUsOTA3LjVDMTU4LjkxNDA2MjUsOTc3LjI1LDE1OC45MTQwNjI1LDEwNDcsMTYwLjg5NDU2MzU1NjI3NDczLDEwOTYuOTU4MzMzMzMzMzMzM0MxNjIuODc1MDY0NjEyNTQ5NDQsMTE0Ni45MTY2NjY2NjY2NjY3LDE2Ni44MzYwNjY3MjUwOTg5LDExNzcuMDgzMzMzMzMzMzMzMywxNjguODE2NTY3NzgxMzczNiwxMTkyLjE2NjY2NjY2NjY2NjdMMTcwLjc5NzA2ODgzNzY0ODM0LDEyMDcuMjUiPjwvcGF0aD48cGF0aCBzdHlsZT0iZmlsbDpub25lIiBjbGFzcz0iZWRnZS1wYXR0ZXJuLXNvbGlkIHJlbGF0aW9uIiBpZD0iaWQ0IiBkPSJNMTA0LjUsMjY4TDEwNC41LDI3My43MDgzMzMzMzMzMzMzQzEwNC41LDI3OS40MTY2NjY2NjY2NjY3LDEwNC41LDI5MC44MzMzMzMzMzMzMzMzLDEyMC4zNzIwNzAzMTI1LDMxNS43NDc5NzYyNzQzMTU1M0MxMzYuMjQ0MTQwNjI1LDM0MC42NjI2MTkyMTUyOTc3NSwxNjcuOTg4MjgxMjUsMzc5LjA3NTIzODQzMDU5NTQ1LDE4My44NjAzNTE1NjI1LDM5OC4yODE1NDgwMzgyNDQ0TDE5OS43MzI0MjE4NzUsNDE3LjQ4Nzg1NzY0NTg5MzI2Ij48L3BhdGg+PHBhdGggc3R5bGU9ImZpbGw6bm9uZSIgY2xhc3M9ImVkZ2UtcGF0dGVybi1zb2xpZCByZWxhdGlvbiIgaWQ9ImlkNSIgZD0iTTQxMi43MTI2MDEyNzMxNDgxNSwxMDgyLjVMNDE0LjY3ODE0NDI5MDEyMzUsMTA4OC4yMDgzMzMzMzMzMzMzQzQxNi42NDM2ODczMDcwOTg4LDEwOTMuOTE2NjY2NjY2NjY2Nyw0MjAuNTc0NzczMzQxMDQ5NCwxMTA1LjMzMzMzMzMzMzMzMzMsNDIzLjUzNTI0MzIxOTQyNzk3LDExMTYuNzVDNDI2LjQ5NTcxMzA5NzgwNjYsMTEyOC4xNjY2NjY2NjY2NjY3LDQyOC40ODU1NjY4MjA2MTMxLDExMzkuNTgzMzMzMzMzMzMzMyw0MjkuNDgwNDkzNjgyMDE2NCwxMTQ1LjI5MTY2NjY2NjY2NjdMNDMwLjQ3NTQyMDU0MzQxOTY2LDExNTEiPjwvcGF0aD48cGF0aCBzdHlsZT0iZmlsbDpub25lIiBjbGFzcz0iZWRnZS1wYXR0ZXJuLXNvbGlkIHJlbGF0aW9uIiBpZD0iaWQ2IiBkPSJNMzI1Ljk3ODY4MzYzNTc1MjcsMTA4Mi41TDMyNS4xMTUwNDg4NjMxMjcyNCwxMDg4LjIwODMzMzMzMzMzMzNDMzI0LjI1MTQxNDA5MDUwMTgsMTA5My45MTY2NjY2NjY2NjY3LDMyMi41MjQxNDQ1NDUyNTA5LDExMDUuMzMzMzMzMzMzMzMzMywzMjEuNjYwNTA5NzcyNjI1NDYsMTE0OS42NjY2NjY2NjY2NjY3QzMyMC43OTY4NzUsMTE5NCwzMjAuNzk2ODc1LDEyNzEuMjUsMzIwLjc5Njg3NSwxMzQ4LjVDMzIwLjc5Njg3NSwxNDI1Ljc1LDMyMC43OTY4NzUsMTUwMywzMzkuNzYxNzE4NzUsMTU2MS42MTMxNDc5NjMzMjExQzM1OC43MjY1NjI1LDE2MjAuMjI2Mjk1OTI2NjQyLDM5Ni42NTYyNSwxNjYwLjIwMjU5MTg1MzI4NDMsNDE1LjYyMTA5Mzc1LDE2ODAuMTkwNzM5ODE2NjA1Mkw0MzQuNTg1OTM3NSwxNzAwLjE3ODg4Nzc3OTkyNjMiPjwvcGF0aD48cGF0aCBzdHlsZT0iZmlsbDpub25lIiBjbGFzcz0iZWRnZS1wYXR0ZXJuLXNvbGlkIHJlbGF0aW9uIiBpZD0iaWQ3IiBkPSJNNDY0Ljg5ODQzNzUsMTU0Nkw0NjQuODk4NDM3NSwxNTUxLjcwODMzMzMzMzMzMzNDNDY0Ljg5ODQzNzUsMTU1Ny40MTY2NjY2NjY2NjY3LDQ2NC44OTg0Mzc1LDE1NjguODMzMzMzMzMzMzMzMyw0NjYuMTYwMDg2Mzc4MTAzOSwxNTgwLjI1QzQ2Ny40MjE3MzUyNTYyMDc5LDE1OTEuNjY2NjY2NjY2NjY2Nyw0NjkuOTQ1MDMzMDEyNDE1NzYsMTYwMy4wODMzMzMzMzMzMzMzLDQ3MS4yMDY2ODE4OTA1MTk3NSwxNjA4Ljc5MTY2NjY2NjY2NjdMNDcyLjQ2ODMzMDc2ODYyMzczLDE2MTQuNSI+PC9wYXRoPjxwYXRoIHN0eWxlPSJmaWxsOm5vbmUiIGNsYXNzPSJlZGdlLXBhdHRlcm4tc29saWQgcmVsYXRpb24iIGlkPSJpZDgiIGQ9Ik01MDguNjYwMTU2MjUsMTk0Mkw1MDguNjYwMTU2MjUsMTk0Ny43MDgzMzMzMzMzMzMzQzUwOC42NjAxNTYyNSwxOTUzLjQxNjY2NjY2NjY2NjcsNTA4LjY2MDE1NjI1LDE5NjQuODMzMzMzMzMzMzMzMyw1MjEuNTIwMTgyMjkxNjY2NiwxOTg1LjMwODcwNzc2NDY1NzhDNTM0LjM4MDIwODMzMzMzMzQsMjAwNS43ODQwODIxOTU5ODI0LDU2MC4xMDAyNjA0MTY2NjY2LDIwMzUuMzE4MTY0MzkxOTY0NSw1NzIuOTYwMjg2NDU4MzMzNCwyMDUwLjA4NTIwNTQ4OTk1NTZMNTg1LjgyMDMxMjUsMjA2NC44NTIyNDY1ODc5NDciPjwvcGF0aD48cGF0aCBzdHlsZT0iZmlsbDpub25lIiBjbGFzcz0iZWRnZS1wYXR0ZXJuLXNvbGlkIHJlbGF0aW9uIiBpZD0iaWQ5IiBkPSJNMzY1LjUxMTcxODc1LDI1Ni43NUwzNjUuNTExNzE4NzUsMjY0LjMzMzMzMzMzMzMzMzNDMzY1LjUxMTcxODc1LDI3MS45MTY2NjY2NjY2NjY3LDM2NS41MTE3MTg3NSwyODcuMDgzMzMzMzMzMzMzMywzNjAuNjgwMDEzMDIwODMzMywzMDQuNDkwMzU2NTI0NDcxMzRDMzU1Ljg0ODMwNzI5MTY2NjcsMzIxLjg5NzM3OTcxNTYwOTM2LDM0Ni4xODQ4OTU4MzMzMzMzLDM0MS41NDQ3NTk0MzEyMTg4LDM0MS4zNTMxOTAxMDQxNjY3LDM1MS4zNjg0NDkyODkwMjM0M0wzMzYuNTIxNDg0Mzc1LDM2MS4xOTIxMzkxNDY4MjgxNCI+PC9wYXRoPjxwYXRoIHN0eWxlPSJmaWxsOm5vbmUiIGNsYXNzPSJlZGdlLXBhdHRlcm4tc29saWQgcmVsYXRpb24iIGlkPSJpZDEwIiBkPSJNNjQxLjY3MTg3NSwyNDUuNUw2NDEuNjcxODc1LDI1NC45NTgzMzMzMzMzMzMzNEM2NDEuNjcxODc1LDI2NC40MTY2NjY2NjY2NjY3LDY0MS42NzE4NzUsMjgzLjMzMzMzMzMzMzMzMzMsNTkwLjgxMzQ3NjU2MjUsMzE5Ljc0OTUwMzA2MzEwMDc1QzUzOS45NTUwNzgxMjUsMzU2LjE2NTY3Mjc5Mjg2ODIsNDM4LjIzODI4MTI1LDQxMC4wODEzNDU1ODU3MzYzLDM4Ny4zNzk4ODI4MTI1LDQzNy4wMzkxODE5ODIxNzA0TDMzNi41MjE0ODQzNzUsNDYzLjk5NzAxODM3ODYwNDUiPjwvcGF0aD48cGF0aCBzdHlsZT0iZmlsbDpub25lIiBjbGFzcz0iZWRnZS1wYXR0ZXJuLXNvbGlkIHJlbGF0aW9uIiBpZD0iaWQxMSIgZD0iTTU1NS40NTkyNjIwNTk0Mzg1LDEwMjYuMjVMNTQ4LjM3MzYwMzc5OTUzMjEsMTA0MS4zMzMzMzMzMzMzMzMzQzU0MS4yODc5NDU1Mzk2MjU2LDEwNTYuNDE2NjY2NjY2NjY2Nyw1MjcuMTE2NjI5MDE5ODEyOSwxMDg2LjU4MzMzMzMzMzMzMzMsNTE4Ljg0NzUwNzYzOTYyNiwxMTA3LjM3NUM1MTAuNTc4Mzg2MjU5NDM5LDExMjguMTY2NjY2NjY2NjY2Nyw1MDguMjExNDYwMDE4ODc4MSwxMTM5LjU4MzMzMzMzMzMzMzMsNTA3LjAyNzk5Njg5ODU5NzYsMTE0NS4yOTE2NjY2NjY2NjY3TDUwNS44NDQ1MzM3NzgzMTcxNiwxMTUxIj48L3BhdGg+PHBhdGggc3R5bGU9ImZpbGw6bm9uZSIgY2xhc3M9ImVkZ2UtcGF0dGVybi1zb2xpZCByZWxhdGlvbiIgaWQ9ImlkMTIiIGQ9Ik02MTEuMTQxMDU5MDI3Nzc3OCwxMDI2LjI1TDYxMS4xMjc5NjU4NTY0ODE1LDEwNDEuMzMzMzMzMzMzMzMzM0M2MTEuMTE0ODcyNjg1MTg1MiwxMDU2LjQxNjY2NjY2NjY2NjcsNjExLjA4ODY4NjM0MjU5MjYsMTA4Ni41ODMzMzMzMzMzMzMzLDYxMS4wNzU1OTMxNzEyOTYzLDExNDAuMjkxNjY2NjY2NjY2N0M2MTEuMDYyNSwxMTk0LDYxMS4wNjI1LDEyNzEuMjUsNjExLjA2MjUsMTM0OC41QzYxMS4wNjI1LDE0MjUuNzUsNjExLjA2MjUsMTUwMyw2MDYuMzQxMTQ1ODMzMzMzNCwxNTUwLjc1Mzk3MTk2MjYxNjhDNjAxLjYxOTc5MTY2NjY2NjYsMTU5OC41MDc5NDM5MjUyMzM4LDU5Mi4xNzcwODMzMzMzMzM0LDE2MTYuNzY1ODg3ODUwNDY3NCw1ODcuNDU1NzI5MTY2NjY2NiwxNjI1Ljg5NDg1OTgxMzA4NEw1ODIuNzM0Mzc1LDE2MzUuMDIzODMxNzc1NzAxIj48L3BhdGg+PHBhdGggc3R5bGU9ImZpbGw6bm9uZSIgY2xhc3M9ImVkZ2UtcGF0dGVybi1zb2xpZCByZWxhdGlvbiIgaWQ9ImlkMTMiIGQ9Ik01MjAuMTE5MTQwNjI1LDk1Ny40OTU3MzkyNzY0OTY0TDQ3MS43NDE1MzY0NTgzMzMzLDk4NC4wMzgxMTYwNjM3NDdDNDIzLjM2MzkzMjI5MTY2NjcsMTAxMC41ODA0OTI4NTA5OTc1LDMyNi42MDg3MjM5NTgzMzMzLDEwNjMuNjY1MjQ2NDI1NDk4NywyNzUuNTk0NTYxODcwNzI5OTMsMTEwNS4yOTA5NTY1NDYwODI3QzIyNC41ODAzOTk3ODMxMjY1OCwxMTQ2LjkxNjY2NjY2NjY2NjcsMjE5LjMwNzI4Mzk0MTI1MzEzLDExNzcuMDgzMzMzMzMzMzMzMywyMTYuNjcwNzI2MDIwMzE2NDQsMTE5Mi4xNjY2NjY2NjY2NjY3TDIxNC4wMzQxNjgwOTkzNzk3LDEyMDcuMjUiPjwvcGF0aD48cGF0aCBzdHlsZT0iZmlsbDpub25lIiBjbGFzcz0iZWRnZS1wYXR0ZXJuLXNvbGlkIHJlbGF0aW9uIiBpZD0iaWQxNCIgZD0iTTYzOS43NjIyNzQxMTg4NzY5LDEwMjYuMjVMNjQzLjM4NDU3NzM5MDczMDgsMTA0MS4zMzMzMzMzMzMzMzMzQzY0Ny4wMDY4ODA2NjI1ODQ2LDEwNTYuNDE2NjY2NjY2NjY2Nyw2NTQuMjUxNDg3MjA2MjkyNCwxMDg2LjU4MzMzMzMzMzMzMzMsNjU3Ljg3Mzc5MDQ3ODE0NjEsMTE0MC4yOTE2NjY2NjY2NjY3QzY2MS40OTYwOTM3NSwxMTk0LDY2MS40OTYwOTM3NSwxMjcxLjI1LDY2MS40OTYwOTM3NSwxMzQ4LjVDNjYxLjQ5NjA5Mzc1LDE0MjUuNzUsNjYxLjQ5NjA5Mzc1LDE1MDMsNjYxLjQ5NjA5Mzc1LDE1NzQuNjI1QzY2MS40OTYwOTM3NSwxNjQ2LjI1LDY2MS40OTYwOTM3NSwxNzEyLjI1LDY2MS40OTYwOTM3NSwxNzc4LjI1QzY2MS40OTYwOTM3NSwxODQ0LjI1LDY2MS40OTYwOTM3NSwxOTEwLjI1LDY2MS40OTYwOTM3NSwxOTQ4Ljk1ODMzMzMzMzMzMzNDNjYxLjQ5NjA5Mzc1LDE5ODcuNjY2NjY2NjY2NjY2Nyw2NjEuNDk2MDkzNzUsMTk5OS4wODMzMzMzMzMzMzMzLDY2MS40OTYwOTM3NSwyMDA0Ljc5MTY2NjY2NjY2NjdMNjYxLjQ5NjA5Mzc1LDIwMTAuNSI+PC9wYXRoPjwvZz48ZyBjbGFzcz0iZWRnZUxhYmVscyI+PGcgdHJhbnNmb3JtPSJ0cmFuc2xhdGUoMzUyLjQ1NTA3ODEyNSwgNjk4LjI1KSIgY2xhc3M9ImVkZ2VMYWJlbCI+PGcgdHJhbnNmb3JtPSJ0cmFuc2xhdGUoLTMwLjA3MDMxMjUsIC05LjI1KSIgY2xhc3M9ImxhYmVsIj48cmVjdCBoZWlnaHQ9IjE4LjUiIHdpZHRoPSI2MC4xNDA2MjUiIHJ5PSIwIiByeD0iMCI+PC9yZWN0Pjx0ZXh0IHN0eWxlPSIiPjx0c3BhbiBjbGFzcz0icm93IiB4PSIwIiBkeT0iMWVtIiB4bWw6c3BhY2U9InByZXNlcnZlIj5NYW5hZ2VzPC90c3Bhbj48L3RleHQ+PC9nPjwvZz48ZyB0cmFuc2Zvcm09InRyYW5zbGF0ZSg4NS44OTg0Mzc1LCAxMTE2Ljc1KSIgY2xhc3M9ImVkZ2VMYWJlbCI+PGcgdHJhbnNmb3JtPSJ0cmFuc2xhdGUoLTIyLjU4NTkzNzUsIC05LjI1KSIgY2xhc3M9ImxhYmVsIj48cmVjdCBoZWlnaHQ9IjE4LjUiIHdpZHRoPSI0NS4xNzE4NzUiIHJ5PSIwIiByeD0iMCI+PC9yZWN0Pjx0ZXh0IHN0eWxlPSIiPjx0c3BhbiBjbGFzcz0icm93IiB4PSIwIiBkeT0iMWVtIiB4bWw6c3BhY2U9InByZXNlcnZlIj5QbGFjZXM8L3RzcGFuPjwvdGV4dD48L2c+PC9nPjxnIHRyYW5zZm9ybT0idHJhbnNsYXRlKDE1OC45MTQwNjI1LCA5MDcuNSkiIGNsYXNzPSJlZGdlTGFiZWwiPjxnIHRyYW5zZm9ybT0idHJhbnNsYXRlKC0yMi41NzgxMjUsIC05LjI1KSIgY2xhc3M9ImxhYmVsIj48cmVjdCBoZWlnaHQ9IjE4LjUiIHdpZHRoPSI0NS4xNTYyNSIgcnk9IjAiIHJ4PSIwIj48L3JlY3Q+PHRleHQgc3R5bGU9IiI+PHRzcGFuIGNsYXNzPSJyb3ciIHg9IjAiIGR5PSIxZW0iIHhtbDpzcGFjZT0icHJlc2VydmUiPldyaXRlczwvdHNwYW4+PC90ZXh0PjwvZz48L2c+PGcgdHJhbnNmb3JtPSJ0cmFuc2xhdGUoMTA0LjUsIDMwMi4yNSkiIGNsYXNzPSJlZGdlTGFiZWwiPjxnIHRyYW5zZm9ybT0idHJhbnNsYXRlKC00OS4yNDIxODc1LCAtOS4yNSkiIGNsYXNzPSJsYWJlbCI+PHJlY3QgaGVpZ2h0PSIxOC41IiB3aWR0aD0iOTguNDg0Mzc1IiByeT0iMCIgcng9IjAiPjwvcmVjdD48dGV4dCBzdHlsZT0iIj48dHNwYW4gY2xhc3M9InJvdyIgeD0iMCIgZHk9IjFlbSIgeG1sOnNwYWNlPSJwcmVzZXJ2ZSI+YXV0aGVudGljYXRlczwvdHNwYW4+PC90ZXh0PjwvZz48L2c+PGcgdHJhbnNmb3JtPSJ0cmFuc2xhdGUoNDI0LjUwNTg1OTM3NSwgMTExNi43NSkiIGNsYXNzPSJlZGdlTGFiZWwiPjxnIHRyYW5zZm9ybT0idHJhbnNsYXRlKC0zMC43MTQ4NDM3NSwgLTkuMjUpIiBjbGFzcz0ibGFiZWwiPjxyZWN0IGhlaWdodD0iMTguNSIgd2lkdGg9IjYxLjQyOTY4NzUiIHJ5PSIwIiByeD0iMCI+PC9yZWN0Pjx0ZXh0IHN0eWxlPSIiPjx0c3BhbiBjbGFzcz0icm93IiB4PSIwIiBkeT0iMWVtIiB4bWw6c3BhY2U9InByZXNlcnZlIj5Db250YWluczwvdHNwYW4+PC90ZXh0PjwvZz48L2c+PGcgdHJhbnNmb3JtPSJ0cmFuc2xhdGUoMzIwLjc5Njg3NSwgMTM0OC41KSIgY2xhc3M9ImVkZ2VMYWJlbCI+PGcgdHJhbnNmb3JtPSJ0cmFuc2xhdGUoLTI4LjAwNzgxMjUsIC05LjI1KSIgY2xhc3M9ImxhYmVsIj48cmVjdCBoZWlnaHQ9IjE4LjUiIHdpZHRoPSI1Ni4wMTU2MjUiIHJ5PSIwIiByeD0iMCI+PC9yZWN0Pjx0ZXh0IHN0eWxlPSIiPjx0c3BhbiBjbGFzcz0icm93IiB4PSIwIiBkeT0iMWVtIiB4bWw6c3BhY2U9InByZXNlcnZlIj5TdWJtaXRzPC90c3Bhbj48L3RleHQ+PC9nPjwvZz48ZyB0cmFuc2Zvcm09InRyYW5zbGF0ZSg0NjQuODk4NDM3NSwgMTU4MC4yNSkiIGNsYXNzPSJlZGdlTGFiZWwiPjxnIHRyYW5zZm9ybT0idHJhbnNsYXRlKC0zOS42Mjg5MDYyNSwgLTkuMjUpIiBjbGFzcz0ibGFiZWwiPjxyZWN0IGhlaWdodD0iMTguNSIgd2lkdGg9Ijc5LjI1NzgxMjUiIHJ5PSIwIiByeD0iMCI+PC9yZWN0Pjx0ZXh0IHN0eWxlPSIiPjx0c3BhbiBjbGFzcz0icm93IiB4PSIwIiBkeT0iMWVtIiB4bWw6c3BhY2U9InByZXNlcnZlIj5JbmNsdWRlZCBpbjwvdHNwYW4+PC90ZXh0PjwvZz48L2c+PGcgdHJhbnNmb3JtPSJ0cmFuc2xhdGUoNTA4LjY2MDE1NjI1LCAxOTc2LjI1KSIgY2xhc3M9ImVkZ2VMYWJlbCI+PGcgdHJhbnNmb3JtPSJ0cmFuc2xhdGUoLTI5LjMwODU5Mzc1LCAtOS4yNSkiIGNsYXNzPSJsYWJlbCI+PHJlY3QgaGVpZ2h0PSIxOC41IiB3aWR0aD0iNTguNjE3MTg3NSIgcnk9IjAiIHJ4PSIwIj48L3JlY3Q+PHRleHQgc3R5bGU9IiI+PHRzcGFuIGNsYXNzPSJyb3ciIHg9IjAiIGR5PSIxZW0iIHhtbDpzcGFjZT0icHJlc2VydmUiPkluaXRpYXRlczwvdHNwYW4+PC90ZXh0PjwvZz48L2c+PGcgdHJhbnNmb3JtPSJ0cmFuc2xhdGUoMzY1LjUxMTcxODc1LCAzMDIuMjUpIiBjbGFzcz0iZWRnZUxhYmVsIj48ZyB0cmFuc2Zvcm09InRyYW5zbGF0ZSgtMjkuNzQ2MDkzNzUsIC05LjI1KSIgY2xhc3M9ImxhYmVsIj48cmVjdCBoZWlnaHQ9IjE4LjUiIHdpZHRoPSI1OS40OTIxODc1IiByeT0iMCIgcng9IjAiPjwvcmVjdD48dGV4dCBzdHlsZT0iIj48dHNwYW4gY2xhc3M9InJvdyIgeD0iMCIgZHk9IjFlbSIgeG1sOnNwYWNlPSJwcmVzZXJ2ZSI+UHJvdmlkZXM8L3RzcGFuPjwvdGV4dD48L2c+PC9nPjxnIHRyYW5zZm9ybT0idHJhbnNsYXRlKDY0MS42NzE4NzUsIDMwMi4yNSkiIGNsYXNzPSJlZGdlTGFiZWwiPjxnIHRyYW5zZm9ybT0idHJhbnNsYXRlKC0yMy4xMjUsIC05LjI1KSIgY2xhc3M9ImxhYmVsIj48cmVjdCBoZWlnaHQ9IjE4LjUiIHdpZHRoPSI0Ni4yNSIgcnk9IjAiIHJ4PSIwIj48L3JlY3Q+PHRleHQgc3R5bGU9IiI+PHRzcGFuIGNsYXNzPSJyb3ciIHg9IjAiIGR5PSIxZW0iIHhtbDpzcGFjZT0icHJlc2VydmUiPkFzc2lzdHM8L3RzcGFuPjwvdGV4dD48L2c+PC9nPjxnIHRyYW5zZm9ybT0idHJhbnNsYXRlKDUxMi45NDUzMTI1LCAxMTE2Ljc1KSIgY2xhc3M9ImVkZ2VMYWJlbCI+PGcgdHJhbnNmb3JtPSJ0cmFuc2xhdGUoLTMwLjA3MDMxMjUsIC05LjI1KSIgY2xhc3M9ImxhYmVsIj48cmVjdCBoZWlnaHQ9IjE4LjUiIHdpZHRoPSI2MC4xNDA2MjUiIHJ5PSIwIiByeD0iMCI+PC9yZWN0Pjx0ZXh0IHN0eWxlPSIiPjx0c3BhbiBjbGFzcz0icm93IiB4PSIwIiBkeT0iMWVtIiB4bWw6c3BhY2U9InByZXNlcnZlIj5NYW5hZ2VzPC90c3Bhbj48L3RleHQ+PC9nPjwvZz48ZyB0cmFuc2Zvcm09InRyYW5zbGF0ZSg2MTEuMDYyNSwgMTM0OC41KSIgY2xhc3M9ImVkZ2VMYWJlbCI+PGcgdHJhbnNmb3JtPSJ0cmFuc2xhdGUoLTMwLjA3MDMxMjUsIC05LjI1KSIgY2xhc3M9ImxhYmVsIj48cmVjdCBoZWlnaHQ9IjE4LjUiIHdpZHRoPSI2MC4xNDA2MjUiIHJ5PSIwIiByeD0iMCI+PC9yZWN0Pjx0ZXh0IHN0eWxlPSIiPjx0c3BhbiBjbGFzcz0icm93IiB4PSIwIiBkeT0iMWVtIiB4bWw6c3BhY2U9InByZXNlcnZlIj5NYW5hZ2VzPC90c3Bhbj48L3RleHQ+PC9nPjwvZz48ZyB0cmFuc2Zvcm09InRyYW5zbGF0ZSgyMjkuODUzNTE1NjI1LCAxMTE2Ljc1KSIgY2xhc3M9ImVkZ2VMYWJlbCI+PGcgdHJhbnNmb3JtPSJ0cmFuc2xhdGUoLTMwLjQzMzU5Mzc1LCAtOS4yNSkiIGNsYXNzPSJsYWJlbCI+PHJlY3QgaGVpZ2h0PSIxOC41IiB3aWR0aD0iNjAuODY3MTg3NSIgcnk9IjAiIHJ4PSIwIj48L3JlY3Q+PHRleHQgc3R5bGU9IiI+PHRzcGFuIGNsYXNzPSJyb3ciIHg9IjAiIGR5PSIxZW0iIHhtbDpzcGFjZT0icHJlc2VydmUiPk1vbml0b3JzPC90c3Bhbj48L3RleHQ+PC9nPjwvZz48ZyB0cmFuc2Zvcm09InRyYW5zbGF0ZSg2NjEuNDk2MDkzNzUsIDE1ODAuMjUpIiBjbGFzcz0iZWRnZUxhYmVsIj48ZyB0cmFuc2Zvcm09InRyYW5zbGF0ZSgtMzAuNDMzNTkzNzUsIC05LjI1KSIgY2xhc3M9ImxhYmVsIj48cmVjdCBoZWlnaHQ9IjE4LjUiIHdpZHRoPSI2MC44NjcxODc1IiByeT0iMCIgcng9IjAiPjwvcmVjdD48dGV4dCBzdHlsZT0iIj48dHNwYW4gY2xhc3M9InJvdyIgeD0iMCIgZHk9IjFlbSIgeG1sOnNwYWNlPSJwcmVzZXJ2ZSI+TW9uaXRvcnM8L3RzcGFuPjwvdGV4dD48L2c+PC9nPjwvZz48ZyBjbGFzcz0ibm9kZXMiPjxnIHRyYW5zZm9ybT0idHJhbnNsYXRlKDI2OC4xMjY5NTMxMjUsIDUwMC4yNSkiIGlkPSJjbGFzc2lkLVVzZXItMTEzIiBjbGFzcz0ibm9kZSBkZWZhdWx0Ij48cmVjdCBoZWlnaHQ9IjMyNy41IiB3aWR0aD0iMTM2Ljc4OTA2MjUiIHk9Ii0xNjMuNzUiIHg9Ii02OC4zOTQ1MzEyNSIgY2xhc3M9Im91dGVyIHRpdGxlLXN0YXRlIj48L3JlY3Q+PGxpbmUgeTI9Ii0xMzMuMjUiIHkxPSItMTMzLjI1IiB4Mj0iNjguMzk0NTMxMjUiIHgxPSItNjguMzk0NTMxMjUiIGNsYXNzPSJkaXZpZGVyIj48L2xpbmU+PGxpbmUgeTI9IjQwLjI1IiB5MT0iNDAuMjUiIHgyPSI2OC4zOTQ1MzEyNSIgeDE9Ii02OC4zOTQ1MzEyNSIgY2xhc3M9ImRpdmlkZXIiPjwvbGluZT48ZyBjbGFzcz0ibGFiZWwiPjx0ZXh0IHN0eWxlPSIiPjx0c3BhbiBjbGFzcz0idGl0bGUtcm93IiB4PSIwIiBkeT0iMWVtIiB4bWw6c3BhY2U9InByZXNlcnZlIj48L3RzcGFuPjwvdGV4dD48dGV4dCB0cmFuc2Zvcm09InRyYW5zbGF0ZSggLTE2Ljg4MjgxMjUsIC0xNTYuMjUpIiBjbGFzcz0iY2xhc3NUaXRsZSIgc3R5bGU9IiI+PHRzcGFuIGNsYXNzPSJ0aXRsZS1yb3ciIHg9IjAiIGR5PSIxZW0iIHhtbDpzcGFjZT0icHJlc2VydmUiPlVzZXI8L3RzcGFuPjwvdGV4dD48dGV4dCB0cmFuc2Zvcm09InRyYW5zbGF0ZSggLTYwLjg5NDUzMTI1LCAtMTIxLjc1KSIgc3R5bGU9IiI+PHRzcGFuIGNsYXNzPSJ0aXRsZS1yb3ciIHg9IjAiIGR5PSIxZW0iIHhtbDpzcGFjZT0icHJlc2VydmUiPi0gVXNlcklEPC90c3Bhbj48L3RleHQ+PHRleHQgdHJhbnNmb3JtPSJ0cmFuc2xhdGUoIC02MC44OTQ1MzEyNSwgLTk5LjI1KSIgc3R5bGU9IiI+PHRzcGFuIGNsYXNzPSJ0aXRsZS1yb3ciIHg9IjAiIGR5PSIxZW0iIHhtbDpzcGFjZT0icHJlc2VydmUiPi0gVXNlcm5hbWU8L3RzcGFuPjwvdGV4dD48dGV4dCB0cmFuc2Zvcm09InRyYW5zbGF0ZSggLTYwLjg5NDUzMTI1LCAtNzYuNzUpIiBzdHlsZT0iIj48dHNwYW4gY2xhc3M9InRpdGxlLXJvdyIgeD0iMCIgZHk9IjFlbSIgeG1sOnNwYWNlPSJwcmVzZXJ2ZSI+LSBFbWFpbDwvdHNwYW4+PC90ZXh0Pjx0ZXh0IHRyYW5zZm9ybT0idHJhbnNsYXRlKCAtNjAuODk0NTMxMjUsIC01NC4yNSkiIHN0eWxlPSIiPjx0c3BhbiBjbGFzcz0idGl0bGUtcm93IiB4PSIwIiBkeT0iMWVtIiB4bWw6c3BhY2U9InByZXNlcnZlIj4tIFBhc3N3b3JkPC90c3Bhbj48L3RleHQ+PHRleHQgdHJhbnNmb3JtPSJ0cmFuc2xhdGUoIC02MC44OTQ1MzEyNSwgLTMxLjc1KSIgc3R5bGU9IiI+PHRzcGFuIGNsYXNzPSJ0aXRsZS1yb3ciIHg9IjAiIGR5PSIxZW0iIHhtbDpzcGFjZT0icHJlc2VydmUiPi0gRGF0ZUpvaW5lZDwvdHNwYW4+PC90ZXh0Pjx0ZXh0IHRyYW5zZm9ybT0idHJhbnNsYXRlKCAtNjAuODk0NTMxMjUsIC05LjI1KSIgc3R5bGU9IiI+PHRzcGFuIGNsYXNzPSJ0aXRsZS1yb3ciIHg9IjAiIGR5PSIxZW0iIHhtbDpzcGFjZT0icHJlc2VydmUiPi0gTGFzdExvZ2luPC90c3Bhbj48L3RleHQ+PHRleHQgdHJhbnNmb3JtPSJ0cmFuc2xhdGUoIC02MC44OTQ1MzEyNSwgMTMuMjUpIiBzdHlsZT0iIj48dHNwYW4gY2xhc3M9InRpdGxlLXJvdyIgeD0iMCIgZHk9IjFlbSIgeG1sOnNwYWNlPSJwcmVzZXJ2ZSI+LS0tPC90c3Bhbj48L3RleHQ+PHRleHQgdHJhbnNmb3JtPSJ0cmFuc2xhdGUoIC02MC44OTQ1MzEyNSwgNDcuNzUpIiBzdHlsZT0iIj48dHNwYW4gY2xhc3M9InRpdGxlLXJvdyIgeD0iMCIgZHk9IjFlbSIgeG1sOnNwYWNlPSJwcmVzZXJ2ZSI+K3JlZ2lzdGVyKCk8L3RzcGFuPjwvdGV4dD48dGV4dCB0cmFuc2Zvcm09InRyYW5zbGF0ZSggLTYwLjg5NDUzMTI1LCA3MC4yNSkiIHN0eWxlPSIiPjx0c3BhbiBjbGFzcz0idGl0bGUtcm93IiB4PSIwIiBkeT0iMWVtIiB4bWw6c3BhY2U9InByZXNlcnZlIj4rbG9naW4oKTwvdHNwYW4+PC90ZXh0Pjx0ZXh0IHRyYW5zZm9ybT0idHJhbnNsYXRlKCAtNjAuODk0NTMxMjUsIDkyLjc1KSIgc3R5bGU9IiI+PHRzcGFuIGNsYXNzPSJ0aXRsZS1yb3ciIHg9IjAiIGR5PSIxZW0iIHhtbDpzcGFjZT0icHJlc2VydmUiPitsb2dvdXQoKTwvdHNwYW4+PC90ZXh0Pjx0ZXh0IHRyYW5zZm9ybT0idHJhbnNsYXRlKCAtNjAuODk0NTMxMjUsIDExNS4yNSkiIHN0eWxlPSIiPjx0c3BhbiBjbGFzcz0idGl0bGUtcm93IiB4PSIwIiBkeT0iMWVtIiB4bWw6c3BhY2U9InByZXNlcnZlIj4rdXBkYXRlUHJvZmlsZSgpPC90c3Bhbj48L3RleHQ+PHRleHQgdHJhbnNmb3JtPSJ0cmFuc2xhdGUoIC02MC44OTQ1MzEyNSwgMTM3Ljc1KSIgc3R5bGU9IiI+PHRzcGFuIGNsYXNzPSJ0aXRsZS1yb3ciIHg9IjAiIGR5PSIxZW0iIHhtbDpzcGFjZT0icHJlc2VydmUiPityZXNldFBhc3N3b3JkKCk8L3RzcGFuPjwvdGV4dD48L2c+PC9nPjxnIHRyYW5zZm9ybT0idHJhbnNsYXRlKDM1Mi40NTUwNzgxMjUsIDkwNy41KSIgaWQ9ImNsYXNzaWQtU2hvcHBpbmdDYXJ0LTExNCIgY2xhc3M9Im5vZGUgZGVmYXVsdCI+PHJlY3QgaGVpZ2h0PSIzNTAiIHdpZHRoPSIxMzYuMzk4NDM3NSIgeT0iLTE3NSIgeD0iLTY4LjE5OTIxODc1IiBjbGFzcz0ib3V0ZXIgdGl0bGUtc3RhdGUiPjwvcmVjdD48bGluZSB5Mj0iLTE0NC41IiB5MT0iLTE0NC41IiB4Mj0iNjguMTk5MjE4NzUiIHgxPSItNjguMTk5MjE4NzUiIGNsYXNzPSJkaXZpZGVyIj48L2xpbmU+PGxpbmUgeTI9IjI5IiB5MT0iMjkiIHgyPSI2OC4xOTkyMTg3NSIgeDE9Ii02OC4xOTkyMTg3NSIgY2xhc3M9ImRpdmlkZXIiPjwvbGluZT48ZyBjbGFzcz0ibGFiZWwiPjx0ZXh0IHN0eWxlPSIiPjx0c3BhbiBjbGFzcz0idGl0bGUtcm93IiB4PSIwIiBkeT0iMWVtIiB4bWw6c3BhY2U9InByZXNlcnZlIj48L3RzcGFuPjwvdGV4dD48dGV4dCB0cmFuc2Zvcm09InRyYW5zbGF0ZSggLTQ5LjU1MDc4MTI1LCAtMTY3LjUpIiBjbGFzcz0iY2xhc3NUaXRsZSIgc3R5bGU9IiI+PHRzcGFuIGNsYXNzPSJ0aXRsZS1yb3ciIHg9IjAiIGR5PSIxZW0iIHhtbDpzcGFjZT0icHJlc2VydmUiPlNob3BwaW5nQ2FydDwvdHNwYW4+PC90ZXh0Pjx0ZXh0IHRyYW5zZm9ybT0idHJhbnNsYXRlKCAtNjAuNjk5MjE4NzUsIC0xMzMpIiBzdHlsZT0iIj48dHNwYW4gY2xhc3M9InRpdGxlLXJvdyIgeD0iMCIgZHk9IjFlbSIgeG1sOnNwYWNlPSJwcmVzZXJ2ZSI+LSBVc2VySUQ8L3RzcGFuPjwvdGV4dD48dGV4dCB0cmFuc2Zvcm09InRyYW5zbGF0ZSggLTYwLjY5OTIxODc1LCAtMTEwLjUpIiBzdHlsZT0iIj48dHNwYW4gY2xhc3M9InRpdGxlLXJvdyIgeD0iMCIgZHk9IjFlbSIgeG1sOnNwYWNlPSJwcmVzZXJ2ZSI+LSBUb3RhbEl0ZW1zPC90c3Bhbj48L3RleHQ+PHRleHQgdHJhbnNmb3JtPSJ0cmFuc2xhdGUoIC02MC42OTkyMTg3NSwgLTg4KSIgc3R5bGU9IiI+PHRzcGFuIGNsYXNzPSJ0aXRsZS1yb3ciIHg9IjAiIGR5PSIxZW0iIHhtbDpzcGFjZT0icHJlc2VydmUiPi0gVG90YWxQcmljZTwvdHNwYW4+PC90ZXh0Pjx0ZXh0IHRyYW5zZm9ybT0idHJhbnNsYXRlKCAtNjAuNjk5MjE4NzUsIC02NS41KSIgc3R5bGU9IiI+PHRzcGFuIGNsYXNzPSJ0aXRsZS1yb3ciIHg9IjAiIGR5PSIxZW0iIHhtbDpzcGFjZT0icHJlc2VydmUiPi0gTGFzdE1vZGlmaWVkPC90c3Bhbj48L3RleHQ+PHRleHQgdHJhbnNmb3JtPSJ0cmFuc2xhdGUoIC02MC42OTkyMTg3NSwgLTQzKSIgc3R5bGU9IiI+PHRzcGFuIGNsYXNzPSJ0aXRsZS1yb3ciIHg9IjAiIGR5PSIxZW0iIHhtbDpzcGFjZT0icHJlc2VydmUiPi0gRXhwaXJlc0F0PC90c3Bhbj48L3RleHQ+PHRleHQgdHJhbnNmb3JtPSJ0cmFuc2xhdGUoIC02MC42OTkyMTg3NSwgLTIwLjUpIiBzdHlsZT0iIj48dHNwYW4gY2xhc3M9InRpdGxlLXJvdyIgeD0iMCIgZHk9IjFlbSIgeG1sOnNwYWNlPSJwcmVzZXJ2ZSI+LSBJc0V4cGlyZWQ8L3RzcGFuPjwvdGV4dD48dGV4dCB0cmFuc2Zvcm09InRyYW5zbGF0ZSggLTYwLjY5OTIxODc1LCAyKSIgc3R5bGU9IiI+PHRzcGFuIGNsYXNzPSJ0aXRsZS1yb3ciIHg9IjAiIGR5PSIxZW0iIHhtbDpzcGFjZT0icHJlc2VydmUiPi0tLTwvdHNwYW4+PC90ZXh0Pjx0ZXh0IHRyYW5zZm9ybT0idHJhbnNsYXRlKCAtNjAuNjk5MjE4NzUsIDM2LjUpIiBzdHlsZT0iIj48dHNwYW4gY2xhc3M9InRpdGxlLXJvdyIgeD0iMCIgZHk9IjFlbSIgeG1sOnNwYWNlPSJwcmVzZXJ2ZSI+K2FkZEl0ZW0oKTwvdHNwYW4+PC90ZXh0Pjx0ZXh0IHRyYW5zZm9ybT0idHJhbnNsYXRlKCAtNjAuNjk5MjE4NzUsIDU5KSIgc3R5bGU9IiI+PHRzcGFuIGNsYXNzPSJ0aXRsZS1yb3ciIHg9IjAiIGR5PSIxZW0iIHhtbDpzcGFjZT0icHJlc2VydmUiPityZW1vdmVJdGVtKCk8L3RzcGFuPjwvdGV4dD48dGV4dCB0cmFuc2Zvcm09InRyYW5zbGF0ZSggLTYwLjY5OTIxODc1LCA4MS41KSIgc3R5bGU9IiI+PHRzcGFuIGNsYXNzPSJ0aXRsZS1yb3ciIHg9IjAiIGR5PSIxZW0iIHhtbDpzcGFjZT0icHJlc2VydmUiPitjbGVhckNhcnQoKTwvdHNwYW4+PC90ZXh0Pjx0ZXh0IHRyYW5zZm9ybT0idHJhbnNsYXRlKCAtNjAuNjk5MjE4NzUsIDEwNCkiIHN0eWxlPSIiPjx0c3BhbiBjbGFzcz0idGl0bGUtcm93IiB4PSIwIiBkeT0iMWVtIiB4bWw6c3BhY2U9InByZXNlcnZlIj4rZ2V0Q2FydEl0ZW1zKCk8L3RzcGFuPjwvdGV4dD48dGV4dCB0cmFuc2Zvcm09InRyYW5zbGF0ZSggLTYwLjY5OTIxODc1LCAxMjYuNSkiIHN0eWxlPSIiPjx0c3BhbiBjbGFzcz0idGl0bGUtcm93IiB4PSIwIiBkeT0iMWVtIiB4bWw6c3BhY2U9InByZXNlcnZlIj4rY2FsY3VsYXRlVG90YWwoKTwvdHNwYW4+PC90ZXh0Pjx0ZXh0IHRyYW5zZm9ybT0idHJhbnNsYXRlKCAtNjAuNjk5MjE4NzUsIDE0OSkiIHN0eWxlPSIiPjx0c3BhbiBjbGFzcz0idGl0bGUtcm93IiB4PSIwIiBkeT0iMWVtIiB4bWw6c3BhY2U9InByZXNlcnZlIj4rYXBwbHlEaXNjb3VudCgpPC90c3Bhbj48L3RleHQ+PC9nPjwvZz48ZyB0cmFuc2Zvcm09InRyYW5zbGF0ZSg0NjQuODk4NDM3NSwgMTM0OC41KSIgaWQ9ImNsYXNzaWQtUHJvZHVjdC0xMTUiIGNsYXNzPSJub2RlIGRlZmF1bHQiPjxyZWN0IGhlaWdodD0iMzk1IiB3aWR0aD0iMTYyLjE4NzUiIHk9Ii0xOTcuNSIgeD0iLTgxLjA5Mzc1IiBjbGFzcz0ib3V0ZXIgdGl0bGUtc3RhdGUiPjwvcmVjdD48bGluZSB5Mj0iLTE2NyIgeTE9Ii0xNjciIHgyPSI4MS4wOTM3NSIgeDE9Ii04MS4wOTM3NSIgY2xhc3M9ImRpdmlkZXIiPjwvbGluZT48bGluZSB5Mj0iNTEuNSIgeTE9IjUxLjUiIHgyPSI4MS4wOTM3NSIgeDE9Ii04MS4wOTM3NSIgY2xhc3M9ImRpdmlkZXIiPjwvbGluZT48ZyBjbGFzcz0ibGFiZWwiPjx0ZXh0IHN0eWxlPSIiPjx0c3BhbiBjbGFzcz0idGl0bGUtcm93IiB4PSIwIiBkeT0iMWVtIiB4bWw6c3BhY2U9InByZXNlcnZlIj48L3RzcGFuPjwvdGV4dD48dGV4dCB0cmFuc2Zvcm09InRyYW5zbGF0ZSggLTI5LjI3NzM0Mzc1LCAtMTkwKSIgY2xhc3M9ImNsYXNzVGl0bGUiIHN0eWxlPSIiPjx0c3BhbiBjbGFzcz0idGl0bGUtcm93IiB4PSIwIiBkeT0iMWVtIiB4bWw6c3BhY2U9InByZXNlcnZlIj5Qcm9kdWN0PC90c3Bhbj48L3RleHQ+PHRleHQgdHJhbnNmb3JtPSJ0cmFuc2xhdGUoIC03My41OTM3NSwgLTE1NS41KSIgc3R5bGU9IiI+PHRzcGFuIGNsYXNzPSJ0aXRsZS1yb3ciIHg9IjAiIGR5PSIxZW0iIHhtbDpzcGFjZT0icHJlc2VydmUiPi0gUHJvZHVjdElEPC90c3Bhbj48L3RleHQ+PHRleHQgdHJhbnNmb3JtPSJ0cmFuc2xhdGUoIC03My41OTM3NSwgLTEzMykiIHN0eWxlPSIiPjx0c3BhbiBjbGFzcz0idGl0bGUtcm93IiB4PSIwIiBkeT0iMWVtIiB4bWw6c3BhY2U9InByZXNlcnZlIj4tIE5hbWU8L3RzcGFuPjwvdGV4dD48dGV4dCB0cmFuc2Zvcm09InRyYW5zbGF0ZSggLTczLjU5Mzc1LCAtMTEwLjUpIiBzdHlsZT0iIj48dHNwYW4gY2xhc3M9InRpdGxlLXJvdyIgeD0iMCIgZHk9IjFlbSIgeG1sOnNwYWNlPSJwcmVzZXJ2ZSI+LSBEZXNjcmlwdGlvbjwvdHNwYW4+PC90ZXh0Pjx0ZXh0IHRyYW5zZm9ybT0idHJhbnNsYXRlKCAtNzMuNTkzNzUsIC04OCkiIHN0eWxlPSIiPjx0c3BhbiBjbGFzcz0idGl0bGUtcm93IiB4PSIwIiBkeT0iMWVtIiB4bWw6c3BhY2U9InByZXNlcnZlIj4tIFByaWNlPC90c3Bhbj48L3RleHQ+PHRleHQgdHJhbnNmb3JtPSJ0cmFuc2xhdGUoIC03My41OTM3NSwgLTY1LjUpIiBzdHlsZT0iIj48dHNwYW4gY2xhc3M9InRpdGxlLXJvdyIgeD0iMCIgZHk9IjFlbSIgeG1sOnNwYWNlPSJwcmVzZXJ2ZSI+LSBRdWFudGl0eTwvdHNwYW4+PC90ZXh0Pjx0ZXh0IHRyYW5zZm9ybT0idHJhbnNsYXRlKCAtNzMuNTkzNzUsIC00MykiIHN0eWxlPSIiPjx0c3BhbiBjbGFzcz0idGl0bGUtcm93IiB4PSIwIiBkeT0iMWVtIiB4bWw6c3BhY2U9InByZXNlcnZlIj4tIENhdGVnb3J5PC90c3Bhbj48L3RleHQ+PHRleHQgdHJhbnNmb3JtPSJ0cmFuc2xhdGUoIC03My41OTM3NSwgLTIwLjUpIiBzdHlsZT0iIj48dHNwYW4gY2xhc3M9InRpdGxlLXJvdyIgeD0iMCIgZHk9IjFlbSIgeG1sOnNwYWNlPSJwcmVzZXJ2ZSI+LSBCcmFuZDwvdHNwYW4+PC90ZXh0Pjx0ZXh0IHRyYW5zZm9ybT0idHJhbnNsYXRlKCAtNzMuNTkzNzUsIDIpIiBzdHlsZT0iIj48dHNwYW4gY2xhc3M9InRpdGxlLXJvdyIgeD0iMCIgZHk9IjFlbSIgeG1sOnNwYWNlPSJwcmVzZXJ2ZSI+LSBJbWFnZVVSTDwvdHNwYW4+PC90ZXh0Pjx0ZXh0IHRyYW5zZm9ybT0idHJhbnNsYXRlKCAtNzMuNTkzNzUsIDI0LjUpIiBzdHlsZT0iIj48dHNwYW4gY2xhc3M9InRpdGxlLXJvdyIgeD0iMCIgZHk9IjFlbSIgeG1sOnNwYWNlPSJwcmVzZXJ2ZSI+LS0tPC90c3Bhbj48L3RleHQ+PHRleHQgdHJhbnNmb3JtPSJ0cmFuc2xhdGUoIC03My41OTM3NSwgNTkpIiBzdHlsZT0iIj48dHNwYW4gY2xhc3M9InRpdGxlLXJvdyIgeD0iMCIgZHk9IjFlbSIgeG1sOnNwYWNlPSJwcmVzZXJ2ZSI+K2FkZFByb2R1Y3QoKTwvdHNwYW4+PC90ZXh0Pjx0ZXh0IHRyYW5zZm9ybT0idHJhbnNsYXRlKCAtNzMuNTkzNzUsIDgxLjUpIiBzdHlsZT0iIj48dHNwYW4gY2xhc3M9InRpdGxlLXJvdyIgeD0iMCIgZHk9IjFlbSIgeG1sOnNwYWNlPSJwcmVzZXJ2ZSI+K2VkaXRQcm9kdWN0KCk8L3RzcGFuPjwvdGV4dD48dGV4dCB0cmFuc2Zvcm09InRyYW5zbGF0ZSggLTczLjU5Mzc1LCAxMDQpIiBzdHlsZT0iIj48dHNwYW4gY2xhc3M9InRpdGxlLXJvdyIgeD0iMCIgZHk9IjFlbSIgeG1sOnNwYWNlPSJwcmVzZXJ2ZSI+K2RlbGV0ZVByb2R1Y3QoKTwvdHNwYW4+PC90ZXh0Pjx0ZXh0IHRyYW5zZm9ybT0idHJhbnNsYXRlKCAtNzMuNTkzNzUsIDEyNi41KSIgc3R5bGU9IiI+PHRzcGFuIGNsYXNzPSJ0aXRsZS1yb3ciIHg9IjAiIGR5PSIxZW0iIHhtbDpzcGFjZT0icHJlc2VydmUiPitnZXRQcm9kdWN0RGV0YWlscygpPC90c3Bhbj48L3RleHQ+PHRleHQgdHJhbnNmb3JtPSJ0cmFuc2xhdGUoIC03My41OTM3NSwgMTQ5KSIgc3R5bGU9IiI+PHRzcGFuIGNsYXNzPSJ0aXRsZS1yb3ciIHg9IjAiIGR5PSIxZW0iIHhtbDpzcGFjZT0icHJlc2VydmUiPit1cGRhdGVRdWFudGl0eSgpPC90c3Bhbj48L3RleHQ+PHRleHQgdHJhbnNmb3JtPSJ0cmFuc2xhdGUoIC03My41OTM3NSwgMTcxLjUpIiBzdHlsZT0iIj48dHNwYW4gY2xhc3M9InRpdGxlLXJvdyIgeD0iMCIgZHk9IjFlbSIgeG1sOnNwYWNlPSJwcmVzZXJ2ZSI+K3VwZGF0ZVByaWNlKCk8L3RzcGFuPjwvdGV4dD48L2c+PC9nPjxnIHRyYW5zZm9ybT0idHJhbnNsYXRlKDUwOC42NjAxNTYyNSwgMTc3OC4yNSkiIGlkPSJjbGFzc2lkLU9yZGVyLTExNiIgY2xhc3M9Im5vZGUgZGVmYXVsdCI+PHJlY3QgaGVpZ2h0PSIzMjcuNSIgd2lkdGg9IjE0OC4xNDg0Mzc1IiB5PSItMTYzLjc1IiB4PSItNzQuMDc0MjE4NzUiIGNsYXNzPSJvdXRlciB0aXRsZS1zdGF0ZSI+PC9yZWN0PjxsaW5lIHkyPSItMTMzLjI1IiB5MT0iLTEzMy4yNSIgeDI9Ijc0LjA3NDIxODc1IiB4MT0iLTc0LjA3NDIxODc1IiBjbGFzcz0iZGl2aWRlciI+PC9saW5lPjxsaW5lIHkyPSI0MC4yNSIgeTE9IjQwLjI1IiB4Mj0iNzQuMDc0MjE4NzUiIHgxPSItNzQuMDc0MjE4NzUiIGNsYXNzPSJkaXZpZGVyIj48L2xpbmU+PGcgY2xhc3M9ImxhYmVsIj48dGV4dCBzdHlsZT0iIj48dHNwYW4gY2xhc3M9InRpdGxlLXJvdyIgeD0iMCIgZHk9IjFlbSIgeG1sOnNwYWNlPSJwcmVzZXJ2ZSI+PC90c3Bhbj48L3RleHQ+PHRleHQgdHJhbnNmb3JtPSJ0cmFuc2xhdGUoIC0yMS43MDMxMjUsIC0xNTYuMjUpIiBjbGFzcz0iY2xhc3NUaXRsZSIgc3R5bGU9IiI+PHRzcGFuIGNsYXNzPSJ0aXRsZS1yb3ciIHg9IjAiIGR5PSIxZW0iIHhtbDpzcGFjZT0icHJlc2VydmUiPk9yZGVyPC90c3Bhbj48L3RleHQ+PHRleHQgdHJhbnNmb3JtPSJ0cmFuc2xhdGUoIC02Ni41NzQyMTg3NSwgLTEyMS43NSkiIHN0eWxlPSIiPjx0c3BhbiBjbGFzcz0idGl0bGUtcm93IiB4PSIwIiBkeT0iMWVtIiB4bWw6c3BhY2U9InByZXNlcnZlIj4tIE9yZGVySUQ8L3RzcGFuPjwvdGV4dD48dGV4dCB0cmFuc2Zvcm09InRyYW5zbGF0ZSggLTY2LjU3NDIxODc1LCAtOTkuMjUpIiBzdHlsZT0iIj48dHNwYW4gY2xhc3M9InRpdGxlLXJvdyIgeD0iMCIgZHk9IjFlbSIgeG1sOnNwYWNlPSJwcmVzZXJ2ZSI+LSBVc2VySUQ8L3RzcGFuPjwvdGV4dD48dGV4dCB0cmFuc2Zvcm09InRyYW5zbGF0ZSggLTY2LjU3NDIxODc1LCAtNzYuNzUpIiBzdHlsZT0iIj48dHNwYW4gY2xhc3M9InRpdGxlLXJvdyIgeD0iMCIgZHk9IjFlbSIgeG1sOnNwYWNlPSJwcmVzZXJ2ZSI+LSBJdGVtczwvdHNwYW4+PC90ZXh0Pjx0ZXh0IHRyYW5zZm9ybT0idHJhbnNsYXRlKCAtNjYuNTc0MjE4NzUsIC01NC4yNSkiIHN0eWxlPSIiPjx0c3BhbiBjbGFzcz0idGl0bGUtcm93IiB4PSIwIiBkeT0iMWVtIiB4bWw6c3BhY2U9InByZXNlcnZlIj4tIFRvdGFsQW1vdW50PC90c3Bhbj48L3RleHQ+PHRleHQgdHJhbnNmb3JtPSJ0cmFuc2xhdGUoIC02Ni41NzQyMTg3NSwgLTMxLjc1KSIgc3R5bGU9IiI+PHRzcGFuIGNsYXNzPSJ0aXRsZS1yb3ciIHg9IjAiIGR5PSIxZW0iIHhtbDpzcGFjZT0icHJlc2VydmUiPi0gU3RhdHVzPC90c3Bhbj48L3RleHQ+PHRleHQgdHJhbnNmb3JtPSJ0cmFuc2xhdGUoIC02Ni41NzQyMTg3NSwgLTkuMjUpIiBzdHlsZT0iIj48dHNwYW4gY2xhc3M9InRpdGxlLXJvdyIgeD0iMCIgZHk9IjFlbSIgeG1sOnNwYWNlPSJwcmVzZXJ2ZSI+LSBPcmRlckRhdGU8L3RzcGFuPjwvdGV4dD48dGV4dCB0cmFuc2Zvcm09InRyYW5zbGF0ZSggLTY2LjU3NDIxODc1LCAxMy4yNSkiIHN0eWxlPSIiPjx0c3BhbiBjbGFzcz0idGl0bGUtcm93IiB4PSIwIiBkeT0iMWVtIiB4bWw6c3BhY2U9InByZXNlcnZlIj4tLS08L3RzcGFuPjwvdGV4dD48dGV4dCB0cmFuc2Zvcm09InRyYW5zbGF0ZSggLTY2LjU3NDIxODc1LCA0Ny43NSkiIHN0eWxlPSIiPjx0c3BhbiBjbGFzcz0idGl0bGUtcm93IiB4PSIwIiBkeT0iMWVtIiB4bWw6c3BhY2U9InByZXNlcnZlIj4rcGxhY2VPcmRlcigpPC90c3Bhbj48L3RleHQ+PHRleHQgdHJhbnNmb3JtPSJ0cmFuc2xhdGUoIC02Ni41NzQyMTg3NSwgNzAuMjUpIiBzdHlsZT0iIj48dHNwYW4gY2xhc3M9InRpdGxlLXJvdyIgeD0iMCIgZHk9IjFlbSIgeG1sOnNwYWNlPSJwcmVzZXJ2ZSI+K3Byb2Nlc3NPcmRlcigpPC90c3Bhbj48L3RleHQ+PHRleHQgdHJhbnNmb3JtPSJ0cmFuc2xhdGUoIC02Ni41NzQyMTg3NSwgOTIuNzUpIiBzdHlsZT0iIj48dHNwYW4gY2xhc3M9InRpdGxlLXJvdyIgeD0iMCIgZHk9IjFlbSIgeG1sOnNwYWNlPSJwcmVzZXJ2ZSI+K2NhbmNlbE9yZGVyKCk8L3RzcGFuPjwvdGV4dD48dGV4dCB0cmFuc2Zvcm09InRyYW5zbGF0ZSggLTY2LjU3NDIxODc1LCAxMTUuMjUpIiBzdHlsZT0iIj48dHNwYW4gY2xhc3M9InRpdGxlLXJvdyIgeD0iMCIgZHk9IjFlbSIgeG1sOnNwYWNlPSJwcmVzZXJ2ZSI+K2dldE9yZGVyRGV0YWlscygpPC90c3Bhbj48L3RleHQ+PHRleHQgdHJhbnNmb3JtPSJ0cmFuc2xhdGUoIC02Ni41NzQyMTg3NSwgMTM3Ljc1KSIgc3R5bGU9IiI+PHRzcGFuIGNsYXNzPSJ0aXRsZS1yb3ciIHg9IjAiIGR5PSIxZW0iIHhtbDpzcGFjZT0icHJlc2VydmUiPit0cmFja09yZGVyKCk8L3RzcGFuPjwvdGV4dD48L2c+PC9nPjxnIHRyYW5zZm9ybT0idHJhbnNsYXRlKDY2MS40OTYwOTM3NSwgMjE1MS43NSkiIGlkPSJjbGFzc2lkLVBheW1lbnQtMTE3IiBjbGFzcz0ibm9kZSBkZWZhdWx0Ij48cmVjdCBoZWlnaHQ9IjI4Mi41IiB3aWR0aD0iMTUxLjM1MTU2MjUiIHk9Ii0xNDEuMjUiIHg9Ii03NS42NzU3ODEyNSIgY2xhc3M9Im91dGVyIHRpdGxlLXN0YXRlIj48L3JlY3Q+PGxpbmUgeTI9Ii0xMTAuNzUiIHkxPSItMTEwLjc1IiB4Mj0iNzUuNjc1NzgxMjUiIHgxPSItNzUuNjc1NzgxMjUiIGNsYXNzPSJkaXZpZGVyIj48L2xpbmU+PGxpbmUgeTI9IjYyLjc1IiB5MT0iNjIuNzUiIHgyPSI3NS42NzU3ODEyNSIgeDE9Ii03NS42NzU3ODEyNSIgY2xhc3M9ImRpdmlkZXIiPjwvbGluZT48ZyBjbGFzcz0ibGFiZWwiPjx0ZXh0IHN0eWxlPSIiPjx0c3BhbiBjbGFzcz0idGl0bGUtcm93IiB4PSIwIiBkeT0iMWVtIiB4bWw6c3BhY2U9InByZXNlcnZlIj48L3RzcGFuPjwvdGV4dD48dGV4dCB0cmFuc2Zvcm09InRyYW5zbGF0ZSggLTMyLjIxODc1LCAtMTMzLjc1KSIgY2xhc3M9ImNsYXNzVGl0bGUiIHN0eWxlPSIiPjx0c3BhbiBjbGFzcz0idGl0bGUtcm93IiB4PSIwIiBkeT0iMWVtIiB4bWw6c3BhY2U9InByZXNlcnZlIj5QYXltZW50PC90c3Bhbj48L3RleHQ+PHRleHQgdHJhbnNmb3JtPSJ0cmFuc2xhdGUoIC02OC4xNzU3ODEyNSwgLTk5LjI1KSIgc3R5bGU9IiI+PHRzcGFuIGNsYXNzPSJ0aXRsZS1yb3ciIHg9IjAiIGR5PSIxZW0iIHhtbDpzcGFjZT0icHJlc2VydmUiPi0gUGF5bWVudElEPC90c3Bhbj48L3RleHQ+PHRleHQgdHJhbnNmb3JtPSJ0cmFuc2xhdGUoIC02OC4xNzU3ODEyNSwgLTc2Ljc1KSIgc3R5bGU9IiI+PHRzcGFuIGNsYXNzPSJ0aXRsZS1yb3ciIHg9IjAiIGR5PSIxZW0iIHhtbDpzcGFjZT0icHJlc2VydmUiPi0gT3JkZXJJRDwvdHNwYW4+PC90ZXh0Pjx0ZXh0IHRyYW5zZm9ybT0idHJhbnNsYXRlKCAtNjguMTc1NzgxMjUsIC01NC4yNSkiIHN0eWxlPSIiPjx0c3BhbiBjbGFzcz0idGl0bGUtcm93IiB4PSIwIiBkeT0iMWVtIiB4bWw6c3BhY2U9InByZXNlcnZlIj4tIEFtb3VudDwvdHNwYW4+PC90ZXh0Pjx0ZXh0IHRyYW5zZm9ybT0idHJhbnNsYXRlKCAtNjguMTc1NzgxMjUsIC0zMS43NSkiIHN0eWxlPSIiPjx0c3BhbiBjbGFzcz0idGl0bGUtcm93IiB4PSIwIiBkeT0iMWVtIiB4bWw6c3BhY2U9InByZXNlcnZlIj4tIFBheW1lbnRNZXRob2Q8L3RzcGFuPjwvdGV4dD48dGV4dCB0cmFuc2Zvcm09InRyYW5zbGF0ZSggLTY4LjE3NTc4MTI1LCAtOS4yNSkiIHN0eWxlPSIiPjx0c3BhbiBjbGFzcz0idGl0bGUtcm93IiB4PSIwIiBkeT0iMWVtIiB4bWw6c3BhY2U9InByZXNlcnZlIj4tIFRyYW5zYWN0aW9uU3RhdHVzPC90c3Bhbj48L3RleHQ+PHRleHQgdHJhbnNmb3JtPSJ0cmFuc2xhdGUoIC02OC4xNzU3ODEyNSwgMTMuMjUpIiBzdHlsZT0iIj48dHNwYW4gY2xhc3M9InRpdGxlLXJvdyIgeD0iMCIgZHk9IjFlbSIgeG1sOnNwYWNlPSJwcmVzZXJ2ZSI+LSBQYXltZW50RGF0ZTwvdHNwYW4+PC90ZXh0Pjx0ZXh0IHRyYW5zZm9ybT0idHJhbnNsYXRlKCAtNjguMTc1NzgxMjUsIDM1Ljc1KSIgc3R5bGU9IiI+PHRzcGFuIGNsYXNzPSJ0aXRsZS1yb3ciIHg9IjAiIGR5PSIxZW0iIHhtbDpzcGFjZT0icHJlc2VydmUiPi0tLTwvdHNwYW4+PC90ZXh0Pjx0ZXh0IHRyYW5zZm9ybT0idHJhbnNsYXRlKCAtNjguMTc1NzgxMjUsIDcwLjI1KSIgc3R5bGU9IiI+PHRzcGFuIGNsYXNzPSJ0aXRsZS1yb3ciIHg9IjAiIGR5PSIxZW0iIHhtbDpzcGFjZT0icHJlc2VydmUiPitwcm9jZXNzUGF5bWVudCgpPC90c3Bhbj48L3RleHQ+PHRleHQgdHJhbnNmb3JtPSJ0cmFuc2xhdGUoIC02OC4xNzU3ODEyNSwgOTIuNzUpIiBzdHlsZT0iIj48dHNwYW4gY2xhc3M9InRpdGxlLXJvdyIgeD0iMCIgZHk9IjFlbSIgeG1sOnNwYWNlPSJwcmVzZXJ2ZSI+K3ZlcmlmeVBheW1lbnQoKTwvdHNwYW4+PC90ZXh0Pjx0ZXh0IHRyYW5zZm9ybT0idHJhbnNsYXRlKCAtNjguMTc1NzgxMjUsIDExNS4yNSkiIHN0eWxlPSIiPjx0c3BhbiBjbGFzcz0idGl0bGUtcm93IiB4PSIwIiBkeT0iMWVtIiB4bWw6c3BhY2U9InByZXNlcnZlIj4rZ2VuZXJhdGVJbnZvaWNlKCk8L3RzcGFuPjwvdGV4dD48L2c+PC9nPjxnIHRyYW5zZm9ybT0idHJhbnNsYXRlKDM2NS41MTE3MTg3NSwgMTM4KSIgaWQ9ImNsYXNzaWQtUmVjb21tZW5kYXRpb25TeXN0ZW0tMTE4IiBjbGFzcz0ibm9kZSBkZWZhdWx0Ij48cmVjdCBoZWlnaHQ9IjIzNy41IiB3aWR0aD0iMjI5LjAyMzQzNzUiIHk9Ii0xMTguNzUiIHg9Ii0xMTQuNTExNzE4NzUiIGNsYXNzPSJvdXRlciB0aXRsZS1zdGF0ZSI+PC9yZWN0PjxsaW5lIHkyPSItODguMjUiIHkxPSItODguMjUiIHgyPSIxMTQuNTExNzE4NzUiIHgxPSItMTE0LjUxMTcxODc1IiBjbGFzcz0iZGl2aWRlciI+PC9saW5lPjxsaW5lIHkyPSI0MC4yNSIgeTE9IjQwLjI1IiB4Mj0iMTE0LjUxMTcxODc1IiB4MT0iLTExNC41MTE3MTg3NSIgY2xhc3M9ImRpdmlkZXIiPjwvbGluZT48ZyBjbGFzcz0ibGFiZWwiPjx0ZXh0IHN0eWxlPSIiPjx0c3BhbiBjbGFzcz0idGl0bGUtcm93IiB4PSIwIiBkeT0iMWVtIiB4bWw6c3BhY2U9InByZXNlcnZlIj48L3RzcGFuPjwvdGV4dD48dGV4dCB0cmFuc2Zvcm09InRyYW5zbGF0ZSggLTkxLjMzOTg0Mzc1LCAtMTExLjI1KSIgY2xhc3M9ImNsYXNzVGl0bGUiIHN0eWxlPSIiPjx0c3BhbiBjbGFzcz0idGl0bGUtcm93IiB4PSIwIiBkeT0iMWVtIiB4bWw6c3BhY2U9InByZXNlcnZlIj5SZWNvbW1lbmRhdGlvblN5c3RlbTwvdHNwYW4+PC90ZXh0Pjx0ZXh0IHRyYW5zZm9ybT0idHJhbnNsYXRlKCAtMTA3LjAxMTcxODc1LCAtNzYuNzUpIiBzdHlsZT0iIj48dHNwYW4gY2xhc3M9InRpdGxlLXJvdyIgeD0iMCIgZHk9IjFlbSIgeG1sOnNwYWNlPSJwcmVzZXJ2ZSI+LSB1c2VySUQ8L3RzcGFuPjwvdGV4dD48dGV4dCB0cmFuc2Zvcm09InRyYW5zbGF0ZSggLTEwNy4wMTE3MTg3NSwgLTU0LjI1KSIgc3R5bGU9IiI+PHRzcGFuIGNsYXNzPSJ0aXRsZS1yb3ciIHg9IjAiIGR5PSIxZW0iIHhtbDpzcGFjZT0icHJlc2VydmUiPi0gdXNlckZlZWRiYWNrPC90c3Bhbj48L3RleHQ+PHRleHQgdHJhbnNmb3JtPSJ0cmFuc2xhdGUoIC0xMDcuMDExNzE4NzUsIC0zMS43NSkiIHN0eWxlPSIiPjx0c3BhbiBjbGFzcz0idGl0bGUtcm93IiB4PSIwIiBkeT0iMWVtIiB4bWw6c3BhY2U9InByZXNlcnZlIj4tIHVzZXJJbnRlcmVzdDwvdHNwYW4+PC90ZXh0Pjx0ZXh0IHRyYW5zZm9ybT0idHJhbnNsYXRlKCAtMTA3LjAxMTcxODc1LCAtOS4yNSkiIHN0eWxlPSIiPjx0c3BhbiBjbGFzcz0idGl0bGUtcm93IiB4PSIwIiBkeT0iMWVtIiB4bWw6c3BhY2U9InByZXNlcnZlIj4tIHJlY29tbWVuZGVkUHJvZHVjdHM8L3RzcGFuPjwvdGV4dD48dGV4dCB0cmFuc2Zvcm09InRyYW5zbGF0ZSggLTEwNy4wMTE3MTg3NSwgMTMuMjUpIiBzdHlsZT0iIj48dHNwYW4gY2xhc3M9InRpdGxlLXJvdyIgeD0iMCIgZHk9IjFlbSIgeG1sOnNwYWNlPSJwcmVzZXJ2ZSI+LS0tPC90c3Bhbj48L3RleHQ+PHRleHQgdHJhbnNmb3JtPSJ0cmFuc2xhdGUoIC0xMDcuMDExNzE4NzUsIDQ3Ljc1KSIgc3R5bGU9IiI+PHRzcGFuIGNsYXNzPSJ0aXRsZS1yb3ciIHg9IjAiIGR5PSIxZW0iIHhtbDpzcGFjZT0icHJlc2VydmUiPitnZW5lcmF0ZVJlY29tbWVuZGF0aW9ucygpPC90c3Bhbj48L3RleHQ+PHRleHQgdHJhbnNmb3JtPSJ0cmFuc2xhdGUoIC0xMDcuMDExNzE4NzUsIDcwLjI1KSIgc3R5bGU9IiI+PHRzcGFuIGNsYXNzPSJ0aXRsZS1yb3ciIHg9IjAiIGR5PSIxZW0iIHhtbDpzcGFjZT0icHJlc2VydmUiPit1cGRhdGVSZWNvbW1lbmRhdGlvbnMoKTwvdHNwYW4+PC90ZXh0Pjx0ZXh0IHRyYW5zZm9ybT0idHJhbnNsYXRlKCAtMTA3LjAxMTcxODc1LCA5Mi43NSkiIHN0eWxlPSIiPjx0c3BhbiBjbGFzcz0idGl0bGUtcm93IiB4PSIwIiBkeT0iMWVtIiB4bWw6c3BhY2U9InByZXNlcnZlIj4rZ2V0UmVjb21tZW5kYXRpb25zKCk8L3RzcGFuPjwvdGV4dD48L2c+PC9nPjxnIHRyYW5zZm9ybT0idHJhbnNsYXRlKDY0MS42NzE4NzUsIDEzOCkiIGlkPSJjbGFzc2lkLUNoYXRib3QtMTE5IiBjbGFzcz0ibm9kZSBkZWZhdWx0Ij48cmVjdCBoZWlnaHQ9IjIxNSIgd2lkdGg9IjIyMy4yOTY4NzUiIHk9Ii0xMDcuNSIgeD0iLTExMS42NDg0Mzc1IiBjbGFzcz0ib3V0ZXIgdGl0bGUtc3RhdGUiPjwvcmVjdD48bGluZSB5Mj0iLTc3IiB5MT0iLTc3IiB4Mj0iMTExLjY0ODQzNzUiIHgxPSItMTExLjY0ODQzNzUiIGNsYXNzPSJkaXZpZGVyIj48L2xpbmU+PGxpbmUgeTI9IjI5IiB5MT0iMjkiIHgyPSIxMTEuNjQ4NDM3NSIgeDE9Ii0xMTEuNjQ4NDM3NSIgY2xhc3M9ImRpdmlkZXIiPjwvbGluZT48ZyBjbGFzcz0ibGFiZWwiPjx0ZXh0IHN0eWxlPSIiPjx0c3BhbiBjbGFzcz0idGl0bGUtcm93IiB4PSIwIiBkeT0iMWVtIiB4bWw6c3BhY2U9InByZXNlcnZlIj48L3RzcGFuPjwvdGV4dD48dGV4dCB0cmFuc2Zvcm09InRyYW5zbGF0ZSggLTI5LjQyMTg3NSwgLTEwMCkiIGNsYXNzPSJjbGFzc1RpdGxlIiBzdHlsZT0iIj48dHNwYW4gY2xhc3M9InRpdGxlLXJvdyIgeD0iMCIgZHk9IjFlbSIgeG1sOnNwYWNlPSJwcmVzZXJ2ZSI+Q2hhdGJvdDwvdHNwYW4+PC90ZXh0Pjx0ZXh0IHRyYW5zZm9ybT0idHJhbnNsYXRlKCAtMTA0LjE0ODQzNzUsIC02NS41KSIgc3R5bGU9IiI+PHRzcGFuIGNsYXNzPSJ0aXRsZS1yb3ciIHg9IjAiIGR5PSIxZW0iIHhtbDpzcGFjZT0icHJlc2VydmUiPi0gU2VydmljZXM8L3RzcGFuPjwvdGV4dD48dGV4dCB0cmFuc2Zvcm09InRyYW5zbGF0ZSggLTEwNC4xNDg0Mzc1LCAtNDMpIiBzdHlsZT0iIj48dHNwYW4gY2xhc3M9InRpdGxlLXJvdyIgeD0iMCIgZHk9IjFlbSIgeG1sOnNwYWNlPSJwcmVzZXJ2ZSI+LSBTdGF0dXM8L3RzcGFuPjwvdGV4dD48dGV4dCB0cmFuc2Zvcm09InRyYW5zbGF0ZSggLTEwNC4xNDg0Mzc1LCAtMjAuNSkiIHN0eWxlPSIiPjx0c3BhbiBjbGFzcz0idGl0bGUtcm93IiB4PSIwIiBkeT0iMWVtIiB4bWw6c3BhY2U9InByZXNlcnZlIj4tIENoYXRIaXN0b3J5PC90c3Bhbj48L3RleHQ+PHRleHQgdHJhbnNmb3JtPSJ0cmFuc2xhdGUoIC0xMDQuMTQ4NDM3NSwgMikiIHN0eWxlPSIiPjx0c3BhbiBjbGFzcz0idGl0bGUtcm93IiB4PSIwIiBkeT0iMWVtIiB4bWw6c3BhY2U9InByZXNlcnZlIj4tLS08L3RzcGFuPjwvdGV4dD48dGV4dCB0cmFuc2Zvcm09InRyYW5zbGF0ZSggLTEwNC4xNDg0Mzc1LCAzNi41KSIgc3R5bGU9IiI+PHRzcGFuIGNsYXNzPSJ0aXRsZS1yb3ciIHg9IjAiIGR5PSIxZW0iIHhtbDpzcGFjZT0icHJlc2VydmUiPithbnN3ZXJRdWVyeShxdWVyeSk8L3RzcGFuPjwvdGV4dD48dGV4dCB0cmFuc2Zvcm09InRyYW5zbGF0ZSggLTEwNC4xNDg0Mzc1LCA1OSkiIHN0eWxlPSIiPjx0c3BhbiBjbGFzcz0idGl0bGUtcm93IiB4PSIwIiBkeT0iMWVtIiB4bWw6c3BhY2U9InByZXNlcnZlIj4rYW5hbHl6ZUZlZWRiYWNrKGZlZWRiYWNrKTwvdHNwYW4+PC90ZXh0Pjx0ZXh0IHRyYW5zZm9ybT0idHJhbnNsYXRlKCAtMTA0LjE0ODQzNzUsIDgxLjUpIiBzdHlsZT0iIj48dHNwYW4gY2xhc3M9InRpdGxlLXJvdyIgeD0iMCIgZHk9IjFlbSIgeG1sOnNwYWNlPSJwcmVzZXJ2ZSI+K3N1Z2dlc3RQcm9kdWN0cygpPC90c3Bhbj48L3RleHQ+PC9nPjwvZz48ZyB0cmFuc2Zvcm09InRyYW5zbGF0ZSg2MTEuMjQ0MTQwNjI1LCA5MDcuNSkiIGlkPSJjbGFzc2lkLUFkbWluaXN0cmF0b3ItMTIwIiBjbGFzcz0ibm9kZSBkZWZhdWx0Ij48cmVjdCBoZWlnaHQ9IjIzNy41IiB3aWR0aD0iMTgyLjI1IiB5PSItMTE4Ljc1IiB4PSItOTEuMTI1IiBjbGFzcz0ib3V0ZXIgdGl0bGUtc3RhdGUiPjwvcmVjdD48bGluZSB5Mj0iLTg4LjI1IiB5MT0iLTg4LjI1IiB4Mj0iOTEuMTI1IiB4MT0iLTkxLjEyNSIgY2xhc3M9ImRpdmlkZXIiPjwvbGluZT48bGluZSB5Mj0iNDAuMjUiIHkxPSI0MC4yNSIgeDI9IjkxLjEyNSIgeDE9Ii05MS4xMjUiIGNsYXNzPSJkaXZpZGVyIj48L2xpbmU+PGcgY2xhc3M9ImxhYmVsIj48dGV4dCBzdHlsZT0iIj48dHNwYW4gY2xhc3M9InRpdGxlLXJvdyIgeD0iMCIgZHk9IjFlbSIgeG1sOnNwYWNlPSJwcmVzZXJ2ZSI+PC90c3Bhbj48L3RleHQ+PHRleHQgdHJhbnNmb3JtPSJ0cmFuc2xhdGUoIC01MS4yNDYwOTM3NSwgLTExMS4yNSkiIGNsYXNzPSJjbGFzc1RpdGxlIiBzdHlsZT0iIj48dHNwYW4gY2xhc3M9InRpdGxlLXJvdyIgeD0iMCIgZHk9IjFlbSIgeG1sOnNwYWNlPSJwcmVzZXJ2ZSI+QWRtaW5pc3RyYXRvcjwvdHNwYW4+PC90ZXh0Pjx0ZXh0IHRyYW5zZm9ybT0idHJhbnNsYXRlKCAtODMuNjI1LCAtNzYuNzUpIiBzdHlsZT0iIj48dHNwYW4gY2xhc3M9InRpdGxlLXJvdyIgeD0iMCIgZHk9IjFlbSIgeG1sOnNwYWNlPSJwcmVzZXJ2ZSI+LSBBZG1pbklEPC90c3Bhbj48L3RleHQ+PHRleHQgdHJhbnNmb3JtPSJ0cmFuc2xhdGUoIC04My42MjUsIC01NC4yNSkiIHN0eWxlPSIiPjx0c3BhbiBjbGFzcz0idGl0bGUtcm93IiB4PSIwIiBkeT0iMWVtIiB4bWw6c3BhY2U9InByZXNlcnZlIj4tIFVzZXJuYW1lPC90c3Bhbj48L3RleHQ+PHRleHQgdHJhbnNmb3JtPSJ0cmFuc2xhdGUoIC04My42MjUsIC0zMS43NSkiIHN0eWxlPSIiPjx0c3BhbiBjbGFzcz0idGl0bGUtcm93IiB4PSIwIiBkeT0iMWVtIiB4bWw6c3BhY2U9InByZXNlcnZlIj4tIEVtYWlsPC90c3Bhbj48L3RleHQ+PHRleHQgdHJhbnNmb3JtPSJ0cmFuc2xhdGUoIC04My42MjUsIC05LjI1KSIgc3R5bGU9IiI+PHRzcGFuIGNsYXNzPSJ0aXRsZS1yb3ciIHg9IjAiIGR5PSIxZW0iIHhtbDpzcGFjZT0icHJlc2VydmUiPi0gUGFzc3dvcmQ8L3RzcGFuPjwvdGV4dD48dGV4dCB0cmFuc2Zvcm09InRyYW5zbGF0ZSggLTgzLjYyNSwgMTMuMjUpIiBzdHlsZT0iIj48dHNwYW4gY2xhc3M9InRpdGxlLXJvdyIgeD0iMCIgZHk9IjFlbSIgeG1sOnNwYWNlPSJwcmVzZXJ2ZSI+LS0tPC90c3Bhbj48L3RleHQ+PHRleHQgdHJhbnNmb3JtPSJ0cmFuc2xhdGUoIC04My42MjUsIDQ3Ljc1KSIgc3R5bGU9IiI+PHRzcGFuIGNsYXNzPSJ0aXRsZS1yb3ciIHg9IjAiIGR5PSIxZW0iIHhtbDpzcGFjZT0icHJlc2VydmUiPittYW5hZ2VJbnZlbnRvcnkoKTwvdHNwYW4+PC90ZXh0Pjx0ZXh0IHRyYW5zZm9ybT0idHJhbnNsYXRlKCAtODMuNjI1LCA3MC4yNSkiIHN0eWxlPSIiPjx0c3BhbiBjbGFzcz0idGl0bGUtcm93IiB4PSIwIiBkeT0iMWVtIiB4bWw6c3BhY2U9InByZXNlcnZlIj4rcHJvY2Vzc09yZGVyKG9yZGVySUQpPC90c3Bhbj48L3RleHQ+PHRleHQgdHJhbnNmb3JtPSJ0cmFuc2xhdGUoIC04My42MjUsIDkyLjc1KSIgc3R5bGU9IiI+PHRzcGFuIGNsYXNzPSJ0aXRsZS1yb3ciIHg9IjAiIGR5PSIxZW0iIHhtbDpzcGFjZT0icHJlc2VydmUiPit2aWV3VXNlckFjdGl2aXR5KCk8L3RzcGFuPjwvdGV4dD48L2c+PC9nPjxnIHRyYW5zZm9ybT0idHJhbnNsYXRlKDE4OS4zNDM3NSwgMTM0OC41KSIgaWQ9ImNsYXNzaWQtUmV2aWV3LTEyMSIgY2xhc3M9Im5vZGUgZGVmYXVsdCI+PHJlY3QgaGVpZ2h0PSIyODIuNSIgd2lkdGg9IjEzNi44OTA2MjUiIHk9Ii0xNDEuMjUiIHg9Ii02OC40NDUzMTI1IiBjbGFzcz0ib3V0ZXIgdGl0bGUtc3RhdGUiPjwvcmVjdD48bGluZSB5Mj0iLTExMC43NSIgeTE9Ii0xMTAuNzUiIHgyPSI2OC40NDUzMTI1IiB4MT0iLTY4LjQ0NTMxMjUiIGNsYXNzPSJkaXZpZGVyIj48L2xpbmU+PGxpbmUgeTI9IjQwLjI1IiB5MT0iNDAuMjUiIHgyPSI2OC40NDUzMTI1IiB4MT0iLTY4LjQ0NTMxMjUiIGNsYXNzPSJkaXZpZGVyIj48L2xpbmU+PGcgY2xhc3M9ImxhYmVsIj48dGV4dCBzdHlsZT0iIj48dHNwYW4gY2xhc3M9InRpdGxlLXJvdyIgeD0iMCIgZHk9IjFlbSIgeG1sOnNwYWNlPSJwcmVzZXJ2ZSI+PC90c3Bhbj48L3RleHQ+PHRleHQgdHJhbnNmb3JtPSJ0cmFuc2xhdGUoIC0yNy4yMDcwMzEyNSwgLTEzMy43NSkiIGNsYXNzPSJjbGFzc1RpdGxlIiBzdHlsZT0iIj48dHNwYW4gY2xhc3M9InRpdGxlLXJvdyIgeD0iMCIgZHk9IjFlbSIgeG1sOnNwYWNlPSJwcmVzZXJ2ZSI+UmV2aWV3PC90c3Bhbj48L3RleHQ+PHRleHQgdHJhbnNmb3JtPSJ0cmFuc2xhdGUoIC02MC45NDUzMTI1LCAtOTkuMjUpIiBzdHlsZT0iIj48dHNwYW4gY2xhc3M9InRpdGxlLXJvdyIgeD0iMCIgZHk9IjFlbSIgeG1sOnNwYWNlPSJwcmVzZXJ2ZSI+LSBQcm9kdWN0SUQ8L3RzcGFuPjwvdGV4dD48dGV4dCB0cmFuc2Zvcm09InRyYW5zbGF0ZSggLTYwLjk0NTMxMjUsIC03Ni43NSkiIHN0eWxlPSIiPjx0c3BhbiBjbGFzcz0idGl0bGUtcm93IiB4PSIwIiBkeT0iMWVtIiB4bWw6c3BhY2U9InByZXNlcnZlIj4tIFVzZXJJRDwvdHNwYW4+PC90ZXh0Pjx0ZXh0IHRyYW5zZm9ybT0idHJhbnNsYXRlKCAtNjAuOTQ1MzEyNSwgLTU0LjI1KSIgc3R5bGU9IiI+PHRzcGFuIGNsYXNzPSJ0aXRsZS1yb3ciIHg9IjAiIGR5PSIxZW0iIHhtbDpzcGFjZT0icHJlc2VydmUiPi0gUmF0aW5nPC90c3Bhbj48L3RleHQ+PHRleHQgdHJhbnNmb3JtPSJ0cmFuc2xhdGUoIC02MC45NDUzMTI1LCAtMzEuNzUpIiBzdHlsZT0iIj48dHNwYW4gY2xhc3M9InRpdGxlLXJvdyIgeD0iMCIgZHk9IjFlbSIgeG1sOnNwYWNlPSJwcmVzZXJ2ZSI+LSBDb21tZW50PC90c3Bhbj48L3RleHQ+PHRleHQgdHJhbnNmb3JtPSJ0cmFuc2xhdGUoIC02MC45NDUzMTI1LCAtOS4yNSkiIHN0eWxlPSIiPjx0c3BhbiBjbGFzcz0idGl0bGUtcm93IiB4PSIwIiBkeT0iMWVtIiB4bWw6c3BhY2U9InByZXNlcnZlIj4tIFJldmlld0RhdGU8L3RzcGFuPjwvdGV4dD48dGV4dCB0cmFuc2Zvcm09InRyYW5zbGF0ZSggLTYwLjk0NTMxMjUsIDEzLjI1KSIgc3R5bGU9IiI+PHRzcGFuIGNsYXNzPSJ0aXRsZS1yb3ciIHg9IjAiIGR5PSIxZW0iIHhtbDpzcGFjZT0icHJlc2VydmUiPi0tLTwvdHNwYW4+PC90ZXh0Pjx0ZXh0IHRyYW5zZm9ybT0idHJhbnNsYXRlKCAtNjAuOTQ1MzEyNSwgNDcuNzUpIiBzdHlsZT0iIj48dHNwYW4gY2xhc3M9InRpdGxlLXJvdyIgeD0iMCIgZHk9IjFlbSIgeG1sOnNwYWNlPSJwcmVzZXJ2ZSI+K2FkZFJldmlldygpPC90c3Bhbj48L3RleHQ+PHRleHQgdHJhbnNmb3JtPSJ0cmFuc2xhdGUoIC02MC45NDUzMTI1LCA3MC4yNSkiIHN0eWxlPSIiPjx0c3BhbiBjbGFzcz0idGl0bGUtcm93IiB4PSIwIiBkeT0iMWVtIiB4bWw6c3BhY2U9InByZXNlcnZlIj4rZGVsZXRlUmV2aWV3KCk8L3RzcGFuPjwvdGV4dD48dGV4dCB0cmFuc2Zvcm09InRyYW5zbGF0ZSggLTYwLjk0NTMxMjUsIDkyLjc1KSIgc3R5bGU9IiI+PHRzcGFuIGNsYXNzPSJ0aXRsZS1yb3ciIHg9IjAiIGR5PSIxZW0iIHhtbDpzcGFjZT0icHJlc2VydmUiPitnZXRSZXZpZXdzKCk8L3RzcGFuPjwvdGV4dD48dGV4dCB0cmFuc2Zvcm09InRyYW5zbGF0ZSggLTYwLjk0NTMxMjUsIDExNS4yNSkiIHN0eWxlPSIiPjx0c3BhbiBjbGFzcz0idGl0bGUtcm93IiB4PSIwIiBkeT0iMWVtIiB4bWw6c3BhY2U9InByZXNlcnZlIj4rYXZlcmFnZVJhdGluZygpPC90c3Bhbj48L3RleHQ+PC9nPjwvZz48ZyB0cmFuc2Zvcm09InRyYW5zbGF0ZSgxMDQuNSwgMTM4KSIgaWQ9ImNsYXNzaWQtQXV0aGVudGljYXRpb24tMTIyIiBjbGFzcz0ibm9kZSBkZWZhdWx0Ij48cmVjdCBoZWlnaHQ9IjI2MCIgd2lkdGg9IjE5MyIgeT0iLTEzMCIgeD0iLTk2LjUiIGNsYXNzPSJvdXRlciB0aXRsZS1zdGF0ZSI+PC9yZWN0PjxsaW5lIHkyPSItOTkuNSIgeTE9Ii05OS41IiB4Mj0iOTYuNSIgeDE9Ii05Ni41IiBjbGFzcz0iZGl2aWRlciI+PC9saW5lPjxsaW5lIHkyPSIyOSIgeTE9IjI5IiB4Mj0iOTYuNSIgeDE9Ii05Ni41IiBjbGFzcz0iZGl2aWRlciI+PC9saW5lPjxnIGNsYXNzPSJsYWJlbCI+PHRleHQgc3R5bGU9IiI+PHRzcGFuIGNsYXNzPSJ0aXRsZS1yb3ciIHg9IjAiIGR5PSIxZW0iIHhtbDpzcGFjZT0icHJlc2VydmUiPjwvdHNwYW4+PC90ZXh0Pjx0ZXh0IHRyYW5zZm9ybT0idHJhbnNsYXRlKCAtNTUuNzUsIC0xMjIuNSkiIGNsYXNzPSJjbGFzc1RpdGxlIiBzdHlsZT0iIj48dHNwYW4gY2xhc3M9InRpdGxlLXJvdyIgeD0iMCIgZHk9IjFlbSIgeG1sOnNwYWNlPSJwcmVzZXJ2ZSI+QXV0aGVudGljYXRpb248L3RzcGFuPjwvdGV4dD48dGV4dCB0cmFuc2Zvcm09InRyYW5zbGF0ZSggLTg5LCAtODgpIiBzdHlsZT0iIj48dHNwYW4gY2xhc3M9InRpdGxlLXJvdyIgeD0iMCIgZHk9IjFlbSIgeG1sOnNwYWNlPSJwcmVzZXJ2ZSI+LSB1c2VybmFtZTwvdHNwYW4+PC90ZXh0Pjx0ZXh0IHRyYW5zZm9ybT0idHJhbnNsYXRlKCAtODksIC02NS41KSIgc3R5bGU9IiI+PHRzcGFuIGNsYXNzPSJ0aXRsZS1yb3ciIHg9IjAiIGR5PSIxZW0iIHhtbDpzcGFjZT0icHJlc2VydmUiPi0gcGFzc3dvcmQ8L3RzcGFuPjwvdGV4dD48dGV4dCB0cmFuc2Zvcm09InRyYW5zbGF0ZSggLTg5LCAtNDMpIiBzdHlsZT0iIj48dHNwYW4gY2xhc3M9InRpdGxlLXJvdyIgeD0iMCIgZHk9IjFlbSIgeG1sOnNwYWNlPSJwcmVzZXJ2ZSI+LSBzZXNzaW9uTWFuYWdlbWVudDwvdHNwYW4+PC90ZXh0Pjx0ZXh0IHRyYW5zZm9ybT0idHJhbnNsYXRlKCAtODksIC0yMC41KSIgc3R5bGU9IiI+PHRzcGFuIGNsYXNzPSJ0aXRsZS1yb3ciIHg9IjAiIGR5PSIxZW0iIHhtbDpzcGFjZT0icHJlc2VydmUiPi0gcGVybWlzc2lvbk1hbmFnZW1lbnQ8L3RzcGFuPjwvdGV4dD48dGV4dCB0cmFuc2Zvcm09InRyYW5zbGF0ZSggLTg5LCAyKSIgc3R5bGU9IiI+PHRzcGFuIGNsYXNzPSJ0aXRsZS1yb3ciIHg9IjAiIGR5PSIxZW0iIHhtbDpzcGFjZT0icHJlc2VydmUiPi0tLTwvdHNwYW4+PC90ZXh0Pjx0ZXh0IHRyYW5zZm9ybT0idHJhbnNsYXRlKCAtODksIDM2LjUpIiBzdHlsZT0iIj48dHNwYW4gY2xhc3M9InRpdGxlLXJvdyIgeD0iMCIgZHk9IjFlbSIgeG1sOnNwYWNlPSJwcmVzZXJ2ZSI+K2F1dGhlbnRpY2F0ZSgpPC90c3Bhbj48L3RleHQ+PHRleHQgdHJhbnNmb3JtPSJ0cmFuc2xhdGUoIC04OSwgNTkpIiBzdHlsZT0iIj48dHNwYW4gY2xhc3M9InRpdGxlLXJvdyIgeD0iMCIgZHk9IjFlbSIgeG1sOnNwYWNlPSJwcmVzZXJ2ZSI+K3JlZ2lzdGVyKCk8L3RzcGFuPjwvdGV4dD48dGV4dCB0cmFuc2Zvcm09InRyYW5zbGF0ZSggLTg5LCA4MS41KSIgc3R5bGU9IiI+PHRzcGFuIGNsYXNzPSJ0aXRsZS1yb3ciIHg9IjAiIGR5PSIxZW0iIHhtbDpzcGFjZT0icHJlc2VydmUiPityZXNldFBhc3N3b3JkKCk8L3RzcGFuPjwvdGV4dD48dGV4dCB0cmFuc2Zvcm09InRyYW5zbGF0ZSggLTg5LCAxMDQpIiBzdHlsZT0iIj48dHNwYW4gY2xhc3M9InRpdGxlLXJvdyIgeD0iMCIgZHk9IjFlbSIgeG1sOnNwYWNlPSJwcmVzZXJ2ZSI+K3ZhbGlkYXRlKCk8L3RzcGFuPjwvdGV4dD48L2c+PC9nPjwvZz48L2c+PC9nPjwvc3ZnPg==;container=0;" parent="1" vertex="1">
                        <mxGeometry x="60" y="20" width="590" height="2368.5" as="geometry"/>
                    </mxCell>
                </UserObject>
            </root>
        </mxGraphModel>
    </diagram>
</mxfile>